<svg width="10" height="10" viewBox="0 0 10 10" fill="none" xmlns="http://www.w3.org/2000/svg">
<path d="M5 10.0001C7.76142 10.0001 10 7.76155 10 5.00012C10 2.2387 7.76142 0.00012207 5 0.00012207C2.23858 0.00012207 0 2.2387 0 5.00012C0 7.76155 2.23858 10.0001 5 10.0001Z" fill="#3A9D5D"/>
<path fill-rule="evenodd" clip-rule="evenodd" d="M3.43858 7.43865L1.60992 5.48144C1.35957 5.21349 1.37394 4.78955 1.64189 4.5392C1.90984 4.28884 2.33378 4.30325 2.58413 4.57117L3.99469 6.08085L6.2274 3.99475C6.24748 3.97597 6.26846 3.95876 6.29016 3.94294L7.34012 2.96195C7.60807 2.7116 8.03205 2.72601 8.28236 2.99396C8.53272 3.26188 8.51831 3.68585 8.25039 3.93621L5.04354 6.93247L5.04012 6.9288L3.93083 7.96526L3.43858 7.43841V7.43865Z" fill="white"/>
</svg>
