<svg width="22" height="21" viewBox="0 0 22 21" fill="none" xmlns="http://www.w3.org/2000/svg">
<path d="M15.5517 7.21887H14.0345V5.05321C14.0345 2.26683 11.6523 0 8.72413 0C5.79597 0 3.41379 2.26683 3.41379 5.05321V7.21887H1.89655C0.850869 7.21887 0 8.02854 0 9.02359V10.1136C0 10.313 0.169665 10.4746 0.37931 10.4746C0.588955 10.4746 0.75862 10.313 0.75862 10.1136V9.02359C0.75862 8.42648 1.26906 7.94076 1.89655 7.94076H15.5517C16.1792 7.94076 16.6896 8.42648 16.6896 9.02359V10.4674C16.6896 10.6667 16.8593 10.8283 17.069 10.8283C17.2786 10.8283 17.4483 10.6667 17.4483 10.4674V9.02359C17.4483 8.02854 16.5974 7.21887 15.5517 7.21887ZM4.17241 5.05321C4.17241 2.66496 6.21416 0.721887 8.72413 0.721887C11.2341 0.721887 13.2759 2.66496 13.2759 5.05321V7.21887H11.7586V5.05321C11.7586 3.46105 10.3973 2.16566 8.72413 2.16566C7.05096 2.16566 5.68965 3.46105 5.68965 5.05321V7.21887H4.17241V5.05321ZM11 7.21887H6.44827V5.05321C6.44827 3.85899 7.46915 2.88755 8.72413 2.88755C9.97912 2.88755 11 3.85899 11 5.05321V7.21887Z" fill="#222222"/>
<path d="M0.387233 12.3615C0.601256 12.3615 0.774465 12.1999 0.774465 12.0006V11.3359C0.774465 11.1366 0.601256 10.975 0.387233 10.975C0.173209 10.975 0 11.1366 0 11.3359V12.0006C0 12.1999 0.173209 12.3615 0.387233 12.3615Z" fill="#222222"/>
<path d="M17.069 18.7691C16.8593 18.7691 16.6896 18.9307 16.6896 19.13C16.6896 19.7272 16.1792 20.2129 15.5517 20.2129H1.89655C1.26906 20.2129 0.75862 19.7272 0.75862 19.13V13.3729C0.75862 13.1736 0.588955 13.012 0.37931 13.012C0.169665 13.012 0 13.1736 0 13.3729V19.13C0 20.1251 0.850869 20.9348 1.89655 20.9348H15.5517C16.5974 20.9348 17.4483 20.1251 17.4483 19.13C17.4483 18.9307 17.2786 18.7691 17.069 18.7691Z" fill="#222222"/>
<path d="M20.4825 11.5502H4.93082C4.09402 11.5502 3.41357 12.1979 3.41357 12.994V16.6035C3.41357 17.3996 4.09402 18.0472 4.93082 18.0472H12.5737C12.7833 18.0472 12.953 17.8856 12.953 17.6863C12.953 17.487 12.7833 17.3254 12.5737 17.3254H4.93082C4.51263 17.3254 4.1722 17.0016 4.1722 16.6035V12.994C4.1722 12.5959 4.51263 12.2721 4.93082 12.2721H20.4825C20.9007 12.2721 21.2412 12.5959 21.2412 12.994V16.6035C21.2412 17.0016 20.9007 17.3254 20.4825 17.3254H14.718C14.5084 17.3254 14.3387 17.487 14.3387 17.6863C14.3387 17.8856 14.5084 18.0472 14.718 18.0472H20.4825C21.3193 18.0472 21.9998 17.3996 21.9998 16.6035V12.994C21.9998 12.1979 21.3193 11.5502 20.4825 11.5502Z" fill="#3A9D5D"/>
<path d="M8.33106 14.0768C8.22587 13.9039 7.99362 13.8449 7.81284 13.9447L7.39647 14.1735V13.7159C7.39647 13.5166 7.22681 13.355 7.01716 13.355C6.80752 13.355 6.63785 13.5166 6.63785 13.7159V14.1735L6.22148 13.9447C6.03998 13.8449 5.80811 13.9039 5.70327 14.0768C5.59843 14.2494 5.66067 14.4702 5.84217 14.57L6.2585 14.7987L5.84217 15.0275C5.66067 15.1273 5.59843 15.3481 5.70327 15.5206C5.77363 15.6364 5.90108 15.7011 6.03221 15.7011C6.09665 15.7011 6.16186 15.6856 6.22148 15.6528L6.63785 15.424V15.8815C6.63785 16.0808 6.80752 16.2425 7.01716 16.2425C7.22681 16.2425 7.39647 16.0808 7.39647 15.8815V15.424L7.81284 15.6528C7.87247 15.6856 7.93767 15.7011 8.00212 15.7011C8.13325 15.7011 8.26066 15.6364 8.33106 15.5206C8.4359 15.3481 8.37365 15.1273 8.19215 15.0275L7.77582 14.7987L8.19215 14.57C8.37365 14.4702 8.4359 14.2494 8.33106 14.0768Z" fill="#3A9D5D"/>
<path d="M12.124 14.0768C12.0188 13.9039 11.7866 13.8449 11.6058 13.9447L11.1894 14.1735V13.7159C11.1894 13.5166 11.0198 13.355 10.8101 13.355C10.6005 13.355 10.4308 13.5166 10.4308 13.7159V14.1735L10.0145 13.9447C9.83295 13.8449 9.60108 13.9039 9.49624 14.0768C9.3914 14.2494 9.45364 14.4702 9.63514 14.57L10.0515 14.7987L9.63514 15.0275C9.45364 15.1273 9.3914 15.3481 9.49624 15.5206C9.5666 15.6364 9.69405 15.7011 9.82518 15.7011C9.88962 15.7011 9.95482 15.6856 10.0145 15.6528L10.4308 15.424V15.8815C10.4308 16.0808 10.6005 16.2425 10.8101 16.2425C11.0198 16.2425 11.1894 16.0808 11.1894 15.8815V15.424L11.6058 15.6528C11.6654 15.6856 11.7306 15.7011 11.7951 15.7011C11.9262 15.7011 12.0536 15.6364 12.124 15.5206C12.2289 15.3481 12.1666 15.1273 11.9851 15.0275L11.5688 14.7987L11.9851 14.57C12.1666 14.4702 12.2289 14.2494 12.124 14.0768Z" fill="#3A9D5D"/>
<path d="M14.9824 15.8816V15.4241L15.3988 15.6529C15.4584 15.6856 15.5236 15.7011 15.5881 15.7011C15.7192 15.7011 15.8466 15.6365 15.917 15.5207C16.0218 15.3481 15.9596 15.1273 15.7781 15.0276L15.3618 14.7988L15.7781 14.57C15.9596 14.4703 16.0218 14.2494 15.917 14.0769C15.8122 13.904 15.5796 13.845 15.3988 13.9447L14.9824 14.1735V13.716C14.9824 13.5167 14.8127 13.355 14.6031 13.355C14.3935 13.355 14.2238 13.5167 14.2238 13.716V14.1735L13.8074 13.9447C13.6259 13.845 13.394 13.904 13.2892 14.0769C13.1844 14.2494 13.2466 14.4703 13.4281 14.57L13.8444 14.7988L13.4281 15.0276C13.2466 15.1273 13.1844 15.3481 13.2892 15.5207C13.3596 15.6365 13.487 15.7011 13.6181 15.7011C13.6826 15.7011 13.7478 15.6856 13.8074 15.6529L14.2238 15.4241V15.8816C14.2238 16.0809 14.3935 16.2425 14.6031 16.2425C14.8127 16.2425 14.9824 16.0809 14.9824 15.8816Z" fill="#3A9D5D"/>
<path d="M17.0827 15.5206C17.153 15.6364 17.2805 15.7011 17.4116 15.7011C17.476 15.7011 17.5413 15.6856 17.6009 15.6528L18.0172 15.424V15.8815C18.0172 16.0808 18.1869 16.2425 18.3966 16.2425C18.6062 16.2425 18.7759 16.0808 18.7759 15.8815V15.424L19.1922 15.6528C19.2519 15.6856 19.3171 15.7011 19.3815 15.7011C19.5126 15.7011 19.6401 15.6364 19.7105 15.5206C19.8153 15.3481 19.753 15.1273 19.5715 15.0275L19.1552 14.7987L19.5715 14.57C19.753 14.4702 19.8153 14.2494 19.7105 14.0768C19.6053 13.9039 19.373 13.8449 19.1922 13.9447L18.7759 14.1735V13.7159C18.7759 13.5166 18.6062 13.355 18.3966 13.355C18.1869 13.355 18.0172 13.5166 18.0172 13.7159V14.1735L17.6009 13.9447C17.4194 13.8449 17.1875 13.9039 17.0827 14.0768C16.9778 14.2494 17.0401 14.4702 17.2216 14.57L17.6379 14.7987L17.2216 15.0275C17.0401 15.1273 16.9778 15.3481 17.0827 15.5206Z" fill="#3A9D5D"/>
</svg>
