<svg width="34" height="35" viewBox="0 0 34 35" fill="none" xmlns="http://www.w3.org/2000/svg">
<g id="Icono Buscar">
<path id="Vector" d="M12.6961 24.0294C10.7568 24.0294 8.89697 23.2605 7.52569 21.892C6.15441 20.5235 5.38403 18.6673 5.38403 16.7319C5.38403 16.4263 5.50567 16.1333 5.72219 15.9172C5.93871 15.7011 6.23237 15.5797 6.53857 15.5797C6.84477 15.5797 7.13843 15.7011 7.35495 15.9172C7.57147 16.1333 7.69311 16.4263 7.69311 16.7319C7.69717 18.0549 8.22557 19.3225 9.16293 20.258C10.1003 21.1935 11.3705 21.7209 12.6961 21.7249C13.0023 21.7249 13.296 21.8463 13.5125 22.0624C13.729 22.2785 13.8506 22.5716 13.8506 22.8772C13.8506 23.1827 13.729 23.4758 13.5125 23.6919C13.296 23.908 13.0023 24.0294 12.6961 24.0294Z" fill="#3A3A3A"/>
<path id="Vector_2" d="M31.9386 34.0154C31.7869 34.0161 31.6366 33.9865 31.4965 33.9285C31.3564 33.8705 31.2293 33.7851 31.1227 33.6774L22.7023 25.1816C22.5356 25.1021 22.3905 24.984 22.279 24.8369C22.1676 24.6899 22.0931 24.5184 22.0619 24.3367C22.0307 24.155 22.0436 23.9685 22.0995 23.7928C22.1555 23.6172 22.2528 23.4574 22.3834 23.3271C22.514 23.1968 22.6741 23.0996 22.8501 23.0438C23.0261 22.9879 23.213 22.975 23.3951 23.0062C23.5771 23.0374 23.749 23.1117 23.8963 23.2229C24.0436 23.3341 24.162 23.4789 24.2416 23.6453L32.6929 32.0796C32.9091 32.2956 33.0305 32.5885 33.0305 32.8938C33.0305 33.1992 32.9091 33.492 32.6929 33.7081C32.488 33.8998 32.2193 34.0092 31.9386 34.0154Z" fill="#3A3A3A"/>
<path id="Vector_3" d="M12.6961 24.0294C10.7568 24.0294 8.89697 23.2605 7.52569 21.892C6.15441 20.5235 5.38403 18.6673 5.38403 16.7319C5.38403 16.4263 5.50567 16.1333 5.72219 15.9172C5.93871 15.7011 6.23237 15.5797 6.53857 15.5797C6.84477 15.5797 7.13843 15.7011 7.35495 15.9172C7.57147 16.1333 7.69311 16.4263 7.69311 16.7319C7.69717 18.0549 8.22557 19.3225 9.16293 20.258C10.1003 21.1935 11.3705 21.7209 12.6961 21.7249C13.0023 21.7249 13.296 21.8463 13.5125 22.0624C13.729 22.2785 13.8506 22.5716 13.8506 22.8772C13.8506 23.1827 13.729 23.4758 13.5125 23.6919C13.296 23.908 13.0023 24.0294 12.6961 24.0294Z" fill="#FF7F00"/>
<g id="Group">
<path id="Vector_4" d="M31.9386 34.0154C31.7869 34.0161 31.6366 33.9865 31.4965 33.9285C31.3564 33.8705 31.2293 33.7851 31.1227 33.6774L22.7023 25.1816C22.5356 25.1021 22.3905 24.984 22.279 24.8369C22.1676 24.6899 22.0931 24.5184 22.0619 24.3367C22.0307 24.155 22.0436 23.9685 22.0995 23.7928C22.1555 23.6172 22.2528 23.4574 22.3834 23.3271C22.514 23.1968 22.6741 23.0996 22.8501 23.0438C23.0261 22.9879 23.213 22.975 23.3951 23.0062C23.5771 23.0374 23.749 23.1117 23.8963 23.2229C24.0436 23.3341 24.162 23.4789 24.2416 23.6453L32.6929 32.0796C32.9091 32.2956 33.0305 32.5885 33.0305 32.8938C33.0305 33.1992 32.9091 33.492 32.6929 33.7081C32.488 33.8998 32.2193 34.0092 31.9386 34.0154Z" fill="#3A3A3A"/>
<path id="Vector_5" d="M14.2203 29.4064C11.1404 29.4023 8.14481 28.4017 5.68296 26.5547C3.2211 24.7077 1.42567 22.1138 0.565971 19.1622C-0.293727 16.2107 -0.17134 13.0605 0.914775 10.1842C2.00089 7.30791 3.99218 4.86061 6.58994 3.20939C9.1877 1.55817 12.2519 0.792055 15.3229 1.02596C18.3938 1.25987 21.306 2.48118 23.6226 4.50671C25.9392 6.53224 27.5353 9.25278 28.1715 12.2602C28.8077 15.2677 28.4496 18.3999 27.1511 21.1871C27.0866 21.3245 26.9956 21.4479 26.8833 21.5501C26.771 21.6523 26.6395 21.7314 26.4965 21.7828C26.3535 21.8342 26.2017 21.8568 26.0498 21.8495C25.898 21.8422 25.7491 21.8051 25.6117 21.7402C25.3365 21.6072 25.1244 21.372 25.0208 21.0848C24.9172 20.7977 24.9304 20.4815 25.0575 20.2039C26.3173 17.5068 26.5237 14.4377 25.6364 11.5968C24.749 8.75592 22.8318 6.34751 20.2595 4.84258C17.6872 3.33766 14.6449 2.84445 11.7276 3.45941C8.81026 4.07438 6.2277 5.75328 4.48494 8.16781C2.74218 10.5823 1.96457 13.5588 2.30417 16.5152C2.64378 19.4716 4.07617 22.1952 6.32125 24.1534C8.56632 26.1117 11.4626 27.1638 14.4437 27.1039C17.4248 27.044 20.2763 25.8764 22.4406 23.8296C22.6616 23.6165 22.9568 23.4974 23.2641 23.4974C23.5714 23.4974 23.8667 23.6165 24.0877 23.8296C24.3039 24.0456 24.4254 24.3385 24.4254 24.6438C24.4254 24.9492 24.3039 25.242 24.0877 25.4581C21.6245 27.8042 18.4048 29.1984 15.0053 29.391L14.2203 29.4064Z" fill="#3A3A3A"/>
</g>
</g>
</svg>
