<svg width="34" height="31" viewBox="0 0 34 31" fill="none" xmlns="http://www.w3.org/2000/svg">
<g id="Icono Configuraci&#195;&#179;n">
<path id="Vector" d="M16.2686 19.9583C18.7497 19.9583 20.761 17.963 20.761 15.5016C20.761 13.0402 18.7497 11.0448 16.2686 11.0448C13.7876 11.0448 11.7762 13.0402 11.7762 15.5016C11.7762 17.963 13.7876 19.9583 16.2686 19.9583Z" fill="#FF7F00"/>
<g id="Group">
<path id="Vector_2" d="M21.7492 31C21.2915 30.9962 20.8399 30.8948 20.4252 30.7025C20.0105 30.5103 19.6424 30.2317 19.3458 29.8858C18.9621 29.4505 18.489 29.1017 17.9583 28.8627C17.4275 28.6237 16.8514 28.5 16.2685 28.5C15.6856 28.5 15.1095 28.6237 14.5788 28.8627C14.048 29.1017 13.5749 29.4505 13.1912 29.8858C12.7436 30.3915 12.1461 30.7437 11.4844 30.8918C10.8226 31.0399 10.1306 30.9764 9.50745 30.7103C8.47263 30.2569 7.48676 29.7006 6.56492 29.0501C6.06095 28.7057 5.66924 28.2228 5.43783 27.6607C5.20642 27.0987 5.14535 26.4818 5.26213 25.8858C5.45579 25.0217 5.37739 24.1194 5.03751 23.3009C4.77865 22.7176 4.38415 22.2035 3.88634 21.8006C3.38853 21.3978 2.80158 21.1177 2.1736 20.9834C1.29758 20.794 0.545104 19.6241 0.107094 18.4987C0.0597453 18.351 0.044006 18.195 0.0608836 18.0409C0.0777611 17.8867 0.126884 17.7378 0.205109 17.6035C0.283335 17.4693 0.388941 17.3527 0.515173 17.2613C0.641404 17.1699 0.785482 17.1056 0.938189 17.0726C1.2041 17.0345 1.47497 17.0922 1.70164 17.2353C1.92831 17.3784 2.09576 17.5974 2.1736 17.8525C2.29714 18.3205 2.47684 18.7662 2.65653 18.8107C3.47414 18.9885 4.24813 19.3252 4.93377 19.8015C5.61941 20.2777 6.2031 20.8841 6.65112 21.5855C7.09914 22.2869 7.40259 23.0694 7.54394 23.8879C7.68529 24.7063 7.66173 25.5444 7.47463 26.3538C7.44202 26.5292 7.46187 26.7102 7.53172 26.8745C7.60157 27.0389 7.71837 27.1793 7.86772 27.2786C8.65979 27.8367 9.50637 28.3145 10.3947 28.7047C10.5837 28.7887 10.7948 28.8102 10.997 28.7661C11.1992 28.7219 11.3818 28.6145 11.5178 28.4596C12.1124 27.7835 12.846 27.2415 13.6693 26.8702C14.4926 26.4988 15.3866 26.3067 16.291 26.3067C17.1954 26.3067 18.0893 26.4988 18.9127 26.8702C19.736 27.2415 20.4696 27.7835 21.0641 28.4596C21.1965 28.6195 21.3785 28.7313 21.5817 28.7777C21.7849 28.824 21.9978 28.8023 22.1873 28.7159C23.2038 28.275 24.1649 27.7178 25.0512 27.0557C25.1955 26.9532 25.3064 26.811 25.3703 26.6467C25.4341 26.4824 25.4481 26.3031 25.4105 26.131C25.0143 24.5874 25.2315 22.9519 26.017 21.5628C26.4417 20.8086 27.0175 20.1487 27.709 19.6236C28.4005 19.0986 29.193 18.7196 30.0377 18.5099C30.2091 18.4623 30.3628 18.3664 30.4804 18.2339C30.598 18.1015 30.6744 17.938 30.7004 17.7634C30.9659 16.1847 30.9659 14.5733 30.7004 12.9946C30.6738 12.8088 30.5941 12.6345 30.4707 12.4923C30.3473 12.3501 30.1853 12.246 30.004 12.1924C29.1864 12.0147 28.4124 11.6779 27.7268 11.2017C27.0412 10.7254 26.4575 10.119 26.0094 9.41763C25.5614 8.71623 25.258 7.93369 25.1166 7.11525C24.9753 6.29681 24.9988 5.45869 25.1859 4.64934C25.2185 4.47396 25.1987 4.29294 25.1288 4.12861C25.059 3.96428 24.9422 3.82382 24.7928 3.72456C24.0263 3.18865 23.2103 2.72605 22.3557 2.34296C22.1668 2.259 21.9556 2.2375 21.7534 2.28164C21.5512 2.32577 21.3686 2.4332 21.2326 2.58808C20.6391 3.29061 19.8977 3.85557 19.0604 4.24321C18.2231 4.63084 17.3104 4.83172 16.3864 4.83172C15.4625 4.83172 14.5498 4.63084 13.7125 4.24321C12.8752 3.85557 12.1337 3.29061 11.5403 2.58808C11.4106 2.42476 11.2293 2.30955 11.0255 2.26103C10.8217 2.21251 10.6074 2.23353 10.4172 2.32068C9.42259 2.76103 8.48082 3.3104 7.60941 3.95854C7.46711 4.06248 7.3584 4.20529 7.29658 4.36952C7.23475 4.53375 7.22247 4.71228 7.26124 4.88332C7.69044 6.45529 7.48074 8.13158 6.67723 9.55178C6.25286 10.3116 5.67457 10.9761 4.97875 11.5034C4.28292 12.0307 3.48462 12.4095 2.63407 12.6158C2.44314 12.6158 2.27468 13.0949 2.16237 13.5406C2.08724 13.7935 1.92412 14.0118 1.70203 14.1567C1.47994 14.3015 1.21326 14.3635 0.94942 14.3317C0.792407 14.3029 0.643389 14.2412 0.512306 14.1507C0.381224 14.0603 0.27109 13.9431 0.189251 13.8071C0.107412 13.6711 0.055749 13.5193 0.0377088 13.3619C0.0196685 13.2045 0.0356655 13.0451 0.0846325 12.8944C0.50018 11.7802 1.20773 10.666 2.07252 10.4654C2.87548 10.2417 3.59422 9.7883 4.13903 9.16182C4.58222 8.66736 4.89599 8.07233 5.05268 7.42918C5.20936 6.78603 5.20415 6.11452 5.03751 5.47384C4.86497 4.86922 4.87982 4.22708 5.08012 3.63095C5.28042 3.03481 5.65691 2.51226 6.16061 2.13127C7.17291 1.39245 8.26537 0.768337 9.4176 0.270565C10.0476 -0.00320041 10.75 -0.0675785 11.42 0.0870322C12.0899 0.241643 12.6915 0.606958 13.1351 1.12849C13.5177 1.58256 13.9961 1.94779 14.5366 2.19841C15.077 2.44902 15.6663 2.57891 16.2629 2.57891C16.8595 2.57891 17.4488 2.44902 17.9892 2.19841C18.5297 1.94779 19.0081 1.58256 19.3907 1.12849C19.8368 0.603613 20.4424 0.236309 21.1167 0.0816349C21.7909 -0.0730389 22.4976 -0.0067503 23.1307 0.270565C24.1277 0.717689 25.0792 1.25869 25.9721 1.88614C26.4801 2.23223 26.8744 2.71876 27.106 3.28529C27.3376 3.85182 27.3964 4.47337 27.2749 5.07273C27.0686 5.95081 27.1472 6.8711 27.4995 7.70222C27.7602 8.28632 28.1567 8.80085 28.6564 9.20367C29.1562 9.60649 29.745 9.88615 30.3747 10.0197C30.9889 10.1693 31.5457 10.4936 31.9767 10.9528C32.4077 11.412 32.694 11.9862 32.8005 12.6047C33.1072 14.4268 33.1072 16.2867 32.8005 18.1088C32.7076 18.7162 32.4365 19.2831 32.0211 19.7387C31.6057 20.1944 31.0644 20.5188 30.4645 20.6714C29.8355 20.8248 29.2521 21.1239 28.7621 21.5442C28.2721 21.9644 27.8894 22.4939 27.6455 23.0892C27.3327 23.8967 27.2817 24.7808 27.4995 25.6184C27.6439 26.2021 27.6147 26.8148 27.4154 27.3823C27.2161 27.9499 26.8552 28.4479 26.3764 28.8162C25.3339 29.5882 24.2029 30.2352 23.0071 30.7437C22.6102 30.9144 22.1819 31.0016 21.7492 31Z" fill="#3A3A3A"/>
<path id="Vector_3" d="M16.2686 21.0726C15.1579 21.0726 14.0722 20.7459 13.1488 20.1337C12.2253 19.5216 11.5056 18.6515 11.0805 17.6335C10.6555 16.6156 10.5443 15.4954 10.761 14.4148C10.9777 13.3341 11.5125 12.3415 12.2978 11.5624C13.0832 10.7833 14.0838 10.2527 15.1731 10.0377C16.2624 9.82275 17.3914 9.93308 18.4175 10.3547C19.4436 10.7764 20.3207 11.4904 20.9377 12.4066C21.5547 13.3227 21.8841 14.3998 21.8841 15.5016C21.8841 16.9791 21.2925 18.3961 20.2393 19.4409C19.1862 20.4856 17.7579 21.0726 16.2686 21.0726ZM16.2686 12.1591C15.6022 12.1591 14.9508 12.3551 14.3967 12.7224C13.8426 13.0897 13.4108 13.6117 13.1558 14.2225C12.9007 14.8333 12.834 15.5053 12.964 16.1537C13.094 16.8021 13.4149 17.3977 13.8861 17.8652C14.3573 18.3327 14.9577 18.651 15.6113 18.78C16.2648 18.9089 16.9423 18.8428 17.558 18.5898C18.1736 18.3368 18.6998 17.9083 19.0701 17.3587C19.4403 16.809 19.6379 16.1627 19.6379 15.5016C19.6379 14.6151 19.2829 13.7649 18.651 13.1381C18.0192 12.5112 17.1622 12.1591 16.2686 12.1591Z" fill="#3A3A3A"/>
</g>
</g>
</svg>
