<svg width="27" height="31" viewBox="0 0 27 31" fill="none" xmlns="http://www.w3.org/2000/svg">
<g id="Icono Notificaci&#195;&#178;n">
<path id="Vector" d="M25.2087 18.589C24.8683 18.0585 24.688 17.451 24.688 16.831V12.3684C24.688 11.8514 24.2607 11.4322 23.7336 11.4322C23.2066 11.4322 22.7792 11.8514 22.7792 12.3684V16.831C22.7792 17.8057 23.0624 18.7585 23.599 19.5959L24.5194 20.9961C24.7527 21.3529 24.7654 21.7888 24.5576 22.1622C24.3487 22.5367 23.9648 22.7603 23.5311 22.7603H3.08595C2.65329 22.7603 2.26835 22.5367 2.05945 22.1622C1.8516 21.7888 1.86539 21.3539 2.09656 21.0003L3.02444 19.5876C3.55678 18.7586 3.83991 17.8047 3.83991 16.831V11.1617C3.83991 6.0396 8.08801 1.87242 13.3096 1.87242C14.2778 1.87242 15.2205 2.01181 16.1091 2.28644C16.6128 2.44143 17.1473 2.16889 17.3064 1.67478C17.4644 1.18171 17.1865 0.656388 16.6828 0.500353C15.6065 0.168518 14.4718 0 13.3085 0C7.03394 0 1.93007 5.00665 1.93007 11.1617V16.831C1.93007 17.451 1.7498 18.0595 1.4147 18.5817L0.490007 19.9881C-0.123984 20.9295 -0.16322 22.079 0.385024 23.061C0.934328 24.045 1.94386 24.6328 3.08489 24.6328H23.53C24.6711 24.6328 25.6806 24.0461 26.2299 23.062C26.7792 22.079 26.74 20.9306 26.1249 19.985L25.2087 18.589Z" fill="#3A3A3A"/>
<path id="Vector_2" d="M18.5143 26.5197C18.054 26.269 17.4729 26.4292 17.2152 26.8817C16.4284 28.2673 14.9311 29.1276 13.3086 29.1276C11.6861 29.1276 10.1899 28.2673 9.40197 26.8827C9.14429 26.4313 8.56211 26.269 8.10294 26.5207C7.64272 26.7725 7.47729 27.3425 7.73391 27.794C8.85691 29.7715 10.9926 31 13.3075 31C15.6214 31 17.7561 29.7715 18.8812 27.794C19.1389 27.3415 18.9734 26.7714 18.5143 26.5197Z" fill="#3A3A3A"/>
<path id="Vector_3" d="M22.4667 9.7761C24.9661 9.7761 27.0001 7.78196 27.0001 5.32909C27.0001 2.87621 24.9661 0.88208 22.4667 0.88208C19.9673 0.88208 17.9333 2.87621 17.9333 5.32909C17.9333 7.78196 19.9673 9.7761 22.4667 9.7761ZM22.4667 2.7545C23.9131 2.7545 25.0913 3.90917 25.0913 5.32909C25.0913 6.74901 23.9142 7.90367 22.4667 7.90367C21.0192 7.90367 19.8421 6.74901 19.8421 5.32909C19.8421 3.90917 21.0203 2.7545 22.4667 2.7545Z" fill="#FF7F00"/>
</g>
</svg>
