<svg width="13" height="14" viewBox="0 0 13 14" fill="none" xmlns="http://www.w3.org/2000/svg">
<path d="M12.9365 4.3251L8.91339 0.559668C8.87269 0.521582 8.81761 0.5 8.76009 0.5H4.20301C3.14242 0.5 2.27963 1.30768 2.27963 2.3002V5.86275H0.591476C0.26535 5.86275 0 6.11107 0 6.41627V9.59822C0 9.90342 0.26535 10.1517 0.591476 10.1517H2.27963V11.6998C2.27963 12.6923 3.14242 13.5 4.20301 13.5H11.0766C12.1372 13.5 13 12.6923 13 11.6998V4.46881C13 4.41498 12.9772 4.36318 12.9365 4.3251ZM1.95106 9.0965V6.91875C1.95106 6.80652 2.04819 6.71563 2.16811 6.71563H2.8673C3.37223 6.71563 3.78328 7.10029 3.78328 7.57281V7.60023C3.78328 8.07301 3.37223 8.45742 2.8673 8.45742H2.3849V9.0965C2.3849 9.20873 2.28777 9.29963 2.16811 9.29963C2.04819 9.29963 1.95106 9.20873 1.95106 9.0965ZM4.28848 9.0965V6.91875C4.28848 6.80652 4.38561 6.71563 4.50526 6.71563H5.20445C5.70965 6.71563 6.12042 7.10029 6.12042 7.57281V8.44244C6.12042 8.91496 5.70965 9.29963 5.20445 9.29963H4.50526C4.38561 9.29963 4.28848 9.20873 4.28848 9.0965ZM8.11082 7.68453C8.23075 7.68453 8.32788 7.77543 8.32788 7.8874C8.32788 7.99963 8.23075 8.09053 8.11082 8.09053H7.1026V9.0965C7.1026 9.20873 7.00547 9.29963 6.88582 9.29963C6.76589 9.29963 6.66876 9.20873 6.66876 9.0965V6.91875C6.66876 6.80652 6.76589 6.71563 6.88582 6.71563H8.28393C8.40358 6.71563 8.50071 6.80652 8.50071 6.91875C8.50071 7.03072 8.40358 7.12162 8.28393 7.12162H7.1026V7.68453H8.11082ZM12.5662 11.6998C12.5662 12.4686 11.8979 13.094 11.0766 13.094H4.20301C3.38173 13.094 2.71347 12.4686 2.71347 11.6998V10.1517H9.85975C10.1859 10.1517 10.4512 9.90342 10.4512 9.59822V6.41627C10.4512 6.11107 10.1859 5.86275 9.85975 5.86275H2.71347V2.3002C2.71347 1.53137 3.38173 0.905996 4.20301 0.905996H8.54303V4.06205C8.54303 4.39822 8.83498 4.67168 9.19366 4.67168H12.5662V11.6998ZM2.8673 8.05143H2.3849V7.12162H2.8673C3.1332 7.12162 3.34944 7.32398 3.34944 7.57281V7.60023C3.34944 7.84906 3.1332 8.05143 2.8673 8.05143ZM5.20445 8.89363H4.72231V7.12162H5.20445C5.47034 7.12162 5.68658 7.32398 5.68658 7.57281V8.44244C5.68658 8.69127 5.47034 8.89363 5.20445 8.89363Z" fill="white"/>
</svg>
