<svg width="16" height="17" viewBox="0 0 16 17" fill="none" xmlns="http://www.w3.org/2000/svg">
<path d="M8.80226 11.9775L11.0402 9.84198H4.94181C4.29158 9.84198 3.76471 9.3392 3.76471 8.71871C3.76471 8.09821 4.29158 7.59544 4.94181 7.59544H11.0397L8.80179 5.45988C8.34225 5.02136 8.34225 4.3101 8.80179 3.87113C9.26133 3.43261 10.0067 3.43261 10.4667 3.87113L14.7142 7.92433C15.1737 8.36286 15.1737 9.07411 14.7142 9.51308L10.4667 13.5663C10.0071 14.0048 9.2618 14.0048 8.80179 13.5663C8.34225 13.1278 8.34225 12.4165 8.80179 11.9775H8.80226Z" fill="#D9534F"/>
<path d="M6.58824 1.93087C6.58824 1.2613 6.07981 0.71875 5.45233 0.71875H2.27181C1.01731 0.71875 0 1.80433 0 3.14299V14.2945C0 15.6332 1.01731 16.7187 2.27181 16.7187H5.45233C6.07981 16.7187 6.58824 16.1762 6.58824 15.5066C6.58824 14.8371 6.07981 14.2945 5.45233 14.2945H2.83976C2.52625 14.2945 2.27181 14.023 2.27181 13.6884V3.74905C2.27181 3.41451 2.52625 3.14299 2.83976 3.14299H5.45233C6.07981 3.14299 6.58824 2.60045 6.58824 1.93087Z" fill="#D9534F"/>
</svg>
