<svg width="17" height="16" viewBox="0 0 17 16" fill="none" xmlns="http://www.w3.org/2000/svg">
<path d="M15.1906 4.81489L9.94473 0.614192C9.42393 0.215839 8.78648 0 8.13079 0C7.47511 0 6.83766 0.215839 6.31685 0.614192L1.07101 4.81489C0.683854 5.14817 0.38564 5.57247 0.203199 6.04962C0.0207581 6.52678 -0.0401838 7.0418 0.0258569 7.54836L1.03081 13.5781C1.15741 14.2493 1.51125 14.8565 2.03284 15.2976C2.55444 15.7386 3.21197 15.9867 3.89492 16H12.3667C13.0481 15.9813 13.7029 15.7314 14.2234 15.2912C14.7439 14.8511 15.0992 14.2469 15.2308 13.5781L16.2357 7.54836C16.2971 7.04208 16.234 6.52847 16.0519 6.05212C15.8697 5.57576 15.5741 5.15106 15.1906 4.81489ZM14.1153 13.3871C14.0299 13.7929 13.8115 14.1586 13.4948 14.4262C13.178 14.6938 12.781 14.848 12.3667 14.8644H3.89492C3.48058 14.848 3.08357 14.6938 2.76682 14.4262C2.45006 14.1586 2.23169 13.7929 2.1463 13.3871L1.14135 7.35742C1.11389 7.05108 1.15664 6.74252 1.26635 6.45519C1.37605 6.16786 1.54983 5.90933 1.77447 5.69925L7.02333 1.49855C7.3409 1.25755 7.73018 1.13015 8.12878 1.13677C8.53229 1.12889 8.9262 1.2602 9.24428 1.5086L14.4901 5.69925C14.7138 5.9122 14.8868 6.17265 14.9964 6.46137C15.1059 6.7501 15.1493 7.05975 15.1232 7.36747L14.1153 13.3871Z" fill="#3A3A3A"/>
<path d="M11.2514 11.0455V14.8644H10.1058V11.0455C10.1058 10.5231 9.89824 10.0221 9.52885 9.65275C9.15946 9.28336 8.65846 9.07584 8.13606 9.07584C7.61366 9.07584 7.11266 9.28336 6.74327 9.65275C6.37387 10.0221 6.16635 10.5231 6.16635 11.0455V14.8644H5.01367V11.0455C5.01367 10.6358 5.09438 10.23 5.2512 9.85143C5.40801 9.47285 5.63785 9.12886 5.92761 8.83911C6.21736 8.54935 6.56135 8.31951 6.93993 8.1627C7.31851 8.00588 7.72427 7.92517 8.13405 7.92517C8.54382 7.92517 8.94958 8.00588 9.32816 8.1627C9.70674 8.31951 10.0507 8.54935 10.3405 8.83911C10.6302 9.12886 10.8601 9.47285 11.0169 9.85143C11.1737 10.23 11.2544 10.6358 11.2544 11.0455H11.2514Z" fill="#FF7F00"/>
</svg>
