<svg width="17" height="16" viewBox="0 0 17 16" fill="none" xmlns="http://www.w3.org/2000/svg">
<g id="Group 258">
<path id="Vector" d="M14.4102 1.92667L8.08473 0.0552723C7.28184 -0.195978 6.43035 0.443468 6.4425 1.28281V4.09516C6.4425 4.32377 6.62804 4.5093 6.85665 4.5093C7.08526 4.5093 7.27079 4.32377 7.27079 4.09516V1.28281C7.26582 0.986279 7.56733 0.761534 7.85005 0.849886L14.1755 2.71963C14.9359 2.94824 15.4582 3.64677 15.4616 4.44083V13.3771C15.4604 14.3677 14.6576 15.1706 13.6669 15.1717H8.55907V8.19799C8.55742 6.75012 7.384 5.5767 5.93613 5.57505H2.62294C1.17508 5.5767 0.00165659 6.75012 0 8.19799V13.3771C0.00165659 14.8249 1.17508 15.9983 2.62294 16H13.6669C15.1148 15.9983 16.2882 14.8249 16.2899 13.3771V4.44083C16.2843 3.28011 15.5212 2.2602 14.4102 1.92667ZM7.73078 15.1717H6.10621V13.2269C6.04491 10.8176 2.51361 10.8182 2.45286 13.2269V13.7487C2.45563 14.2904 3.2784 14.2904 3.28116 13.7487V13.2269C3.30325 11.9148 5.25582 11.9148 5.27791 13.2269V15.1717H2.62294C1.6323 15.1706 0.829402 14.3677 0.828297 13.3771V8.19799C0.829402 7.20735 1.6323 6.40445 2.62294 6.40334H5.93613C6.92678 6.40445 7.72967 7.20735 7.73078 8.19799V15.1717Z" fill="#3A3A3A"/>
<g id="Group 225">
<path id="Vector_2" d="M2.56367 7.5127H2.22903C1.68733 7.5149 1.68733 8.33878 2.22903 8.34099H2.56367C3.10537 8.33823 3.10537 7.5149 2.56367 7.5127Z" fill="#FF7F00"/>
<path id="Vector_3" d="M4.44517 7.51277C4.11772 7.49455 3.71572 7.49786 3.69971 7.92692C3.71572 8.35598 4.11717 8.35929 4.44517 8.34107C4.98688 8.33831 4.98688 7.51498 4.44517 7.51277Z" fill="#FF7F00"/>
<path id="Vector_4" d="M6.32978 7.5127H5.99515C5.45344 7.5149 5.45344 8.33878 5.99515 8.34099H6.32978C6.87149 8.33823 6.87149 7.5149 6.32978 7.5127Z" fill="#FF7F00"/>
<path id="Vector_5" d="M2.56367 9.46204H2.22903C1.68733 9.46424 1.68733 10.2881 2.22903 10.2903H2.56367C3.10537 10.2876 3.10537 9.46424 2.56367 9.46204Z" fill="#FF7F00"/>
<path id="Vector_6" d="M4.44517 9.46199C4.11772 9.44377 3.71572 9.44708 3.69971 9.87614C3.71572 10.3052 4.11772 10.3085 4.44517 10.2903C4.98688 10.2875 4.98688 9.4642 4.44517 9.46199Z" fill="#FF7F00"/>
<path id="Vector_7" d="M6.32978 9.46204H5.99515C5.45344 9.46424 5.45344 10.2881 5.99515 10.2903H6.32978C6.87149 10.2876 6.87149 9.46424 6.32978 9.46204Z" fill="#FF7F00"/>
<path id="Vector_8" d="M10.2946 5.46074C10.8363 5.45854 10.8363 4.63466 10.2946 4.63245H9.95999C9.41828 4.63466 9.41828 5.45854 9.95999 5.46074H10.2946Z" fill="#FF7F00"/>
<path id="Vector_9" d="M12.5902 5.04606C12.5742 4.617 12.1722 4.61369 11.8448 4.63191C11.303 4.63412 11.303 5.458 11.8448 5.46021C12.1722 5.47843 12.5742 5.47512 12.5902 5.04606Z" fill="#FF7F00"/>
<path id="Vector_10" d="M14.0607 5.46074C14.6024 5.45854 14.6024 4.63466 14.0607 4.63245H13.7261C13.1844 4.63466 13.1844 5.45854 13.7261 5.46074H14.0607Z" fill="#FF7F00"/>
<path id="Vector_11" d="M9.95999 8.02349H10.2946C10.8363 8.02128 10.8363 7.1974 10.2946 7.19519H9.95999C9.41828 7.1974 9.41828 8.02073 9.95999 8.02349Z" fill="#FF7F00"/>
<path id="Vector_12" d="M11.8448 8.02356C12.1722 8.04178 12.5742 8.03847 12.5902 7.60941C12.5742 7.18036 12.1722 7.17704 11.8448 7.19526C11.303 7.19747 11.303 8.0208 11.8448 8.02356Z" fill="#FF7F00"/>
<path id="Vector_13" d="M13.7261 8.02349H14.0607C14.6024 8.02128 14.6024 7.1974 14.0607 7.19519H13.7261C13.1844 7.1974 13.1844 8.02073 13.7261 8.02349Z" fill="#FF7F00"/>
<path id="Vector_14" d="M9.95999 10.5884H10.2946C10.8363 10.5862 10.8363 9.76234 10.2946 9.76013H9.95999C9.41828 9.76234 9.41828 10.5857 9.95999 10.5884Z" fill="#FF7F00"/>
<path id="Vector_15" d="M11.8448 10.5885C12.1722 10.6067 12.5742 10.6034 12.5902 10.1744C12.5742 9.7453 12.1728 9.74198 11.8448 9.76021C11.303 9.76242 11.303 10.5857 11.8448 10.5885Z" fill="#FF7F00"/>
<path id="Vector_16" d="M13.7261 10.5884H14.0607C14.6024 10.5862 14.6024 9.76234 14.0607 9.76013H13.7261C13.1844 9.76234 13.1844 10.5857 13.7261 10.5884Z" fill="#FF7F00"/>
<path id="Vector_17" d="M9.95999 13.1545H10.2946C10.8363 13.1523 10.8363 12.3284 10.2946 12.3262H9.95999C9.41828 12.3284 9.41828 13.1517 9.95999 13.1545Z" fill="#FF7F00"/>
<path id="Vector_18" d="M11.8448 13.1545C12.1722 13.1728 12.5742 13.1695 12.5902 12.7404C12.5742 12.3113 12.1722 12.308 11.8448 12.3262C11.303 12.3285 11.303 13.1518 11.8448 13.1545Z" fill="#FF7F00"/>
<path id="Vector_19" d="M13.7261 13.1545H14.0607C14.6024 13.1523 14.6024 12.3284 14.0607 12.3262H13.7261C13.1844 12.3284 13.1844 13.1517 13.7261 13.1545Z" fill="#FF7F00"/>
</g>
</g>
</svg>
