<svg width="17" height="19" viewBox="0 0 17 19" fill="none" xmlns="http://www.w3.org/2000/svg">
<g id="Group 727">
<path id="Vector" fill-rule="evenodd" clip-rule="evenodd" d="M8.87006 0.0943532C8.6394 -0.0314511 8.3606 -0.0314511 8.12994 0.0943532L6.30171 1.09159C4.82615 1.89644 3.17222 2.31818 1.49143 2.31818H0.772727C0.345965 2.31818 0 2.66415 0 3.09091V7.12625C0 11.3534 2.30117 15.2453 6.00503 17.2824L8.12762 18.4498C8.35952 18.5774 8.64048 18.5774 8.87238 18.4498L10.995 17.2824C14.6988 15.2453 17 11.3534 17 7.12625V3.09091C17 2.66415 16.654 2.31818 16.2273 2.31818H15.5086C13.8278 2.31818 12.1739 1.89644 10.6983 1.09159L8.87006 0.0943532ZM7.04179 2.44833L8.5 1.65293L9.95821 2.44833C11.645 3.36839 13.5338 3.85456 15.4545 3.86351V7.12625C15.4545 10.7897 13.4602 14.1627 10.2501 15.9282L8.5 16.8908L6.74981 15.9282C3.53981 14.1627 1.54545 10.7897 1.54545 7.12625V3.86351C3.46624 3.85456 5.355 3.36839 7.04179 2.44833Z" fill="#3A3A3A"/>
<path id="Vector_2" fill-rule="evenodd" clip-rule="evenodd" d="M8.5 5.27271C6.567 5.27271 5 6.83971 5 8.77271C5 10.7057 6.567 12.2727 8.5 12.2727C10.433 12.2727 12 10.7057 12 8.77271C12 6.83971 10.433 5.27271 8.5 5.27271ZM6.75 8.77271C6.75 7.80621 7.53347 7.02271 8.5 7.02271C9.46653 7.02271 10.25 7.80621 10.25 8.77271C10.25 9.73923 9.46653 10.5227 8.5 10.5227C7.53347 10.5227 6.75 9.73923 6.75 8.77271Z" fill="#FF7F00"/>
</g>
</svg>
