<svg width="17" height="19" viewBox="0 0 17 19" fill="none" xmlns="http://www.w3.org/2000/svg">
<g id="Group 263">
<g id="Group 254">
<path id="Vector" d="M15.4151 18.1525H5.04227C4.16829 18.1525 3.45752 17.4418 3.45752 16.5678V14.2627C3.45752 14.0241 3.65109 13.8305 3.88972 13.8305C4.12836 13.8305 4.32193 14.0241 4.32193 14.2627V16.5678C4.32193 16.9651 4.64493 17.2881 5.04227 17.2881H15.4151C15.8125 17.2881 16.1355 16.9651 16.1355 16.5678V3.49249L13.5074 0.864407H5.04227C4.64493 0.864407 4.32193 1.18741 4.32193 1.58475V3.88983C4.32193 4.12846 4.12836 4.32203 3.88972 4.32203C3.65109 4.32203 3.45752 4.12846 3.45752 3.88983V1.58475C3.45752 0.710773 4.16829 0 5.04227 0H13.6863C13.8008 0 13.9108 0.0455831 13.9919 0.126607L16.8733 3.00796C16.9543 3.08899 16.9999 3.199 16.9999 3.31356V16.5678C16.9999 17.4418 16.2891 18.1525 15.4151 18.1525Z" fill="white"/>
<path id="Vector_2" d="M16.568 3.74576H13.6866C13.448 3.74576 13.2544 3.55219 13.2544 3.31356V0.432203C13.2544 0.193569 13.448 0 13.6866 0C13.9252 0 14.1188 0.193569 14.1188 0.432203V2.88136H16.568C16.8066 2.88136 17.0002 3.07493 17.0002 3.31356C17.0002 3.55219 16.8066 3.74576 16.568 3.74576Z" fill="white"/>
<path id="Vector_3" d="M7.34769 3.74575H6.19514C5.95651 3.74575 5.76294 3.55218 5.76294 3.31355C5.76294 3.07492 5.95651 2.88135 6.19514 2.88135H7.34769C7.58632 2.88135 7.77989 3.07492 7.77989 3.31355C7.77989 3.55218 7.58632 3.74575 7.34769 3.74575Z" fill="white"/>
<path id="Vector_4" d="M14.2627 6.05093H13.1102C12.8715 6.05093 12.678 5.85736 12.678 5.61873C12.678 5.38009 12.8715 5.18652 13.1102 5.18652H14.2627C14.5014 5.18652 14.6949 5.38009 14.6949 5.61873C14.6949 5.85736 14.5014 6.05093 14.2627 6.05093Z" fill="white"/>
<path id="Vector_5" d="M11.3816 3.74575H9.07649C8.83786 3.74575 8.64429 3.55218 8.64429 3.31355C8.64429 3.07492 8.83786 2.88135 9.07649 2.88135H11.3816C11.6202 2.88135 11.8138 3.07492 11.8138 3.31355C11.8138 3.55218 11.6202 3.74575 11.3816 3.74575Z" fill="white"/>
<path id="Vector_6" d="M14.2627 15.2711H13.1102C12.8715 15.2711 12.678 15.0776 12.678 14.8389C12.678 14.6003 12.8715 14.4067 13.1102 14.4067H14.2627C14.5014 14.4067 14.6949 14.6003 14.6949 14.8389C14.6949 15.0776 14.5014 15.2711 14.2627 15.2711Z" fill="white"/>
<path id="Vector_7" d="M14.2629 12.9662H9.07649C8.83786 12.9662 8.64429 12.7726 8.64429 12.534C8.64429 12.2954 8.83786 12.1018 9.07649 12.1018H14.2629C14.5016 12.1018 14.6951 12.2954 14.6951 12.534C14.6951 12.7726 14.5016 12.9662 14.2629 12.9662Z" fill="white"/>
<path id="Vector_8" d="M11.3812 6.05093H7.75081C7.51217 6.05093 7.3186 5.85736 7.3186 5.61873C7.3186 5.38009 7.51217 5.18652 7.75081 5.18652H11.3812C11.6198 5.18652 11.8134 5.38009 11.8134 5.61873C11.8134 5.85736 11.6198 6.05093 11.3812 6.05093Z" fill="white"/>
<path id="Vector_9" d="M11.3816 15.2711H6.19514C5.95651 15.2711 5.76294 15.0776 5.76294 14.8389C5.76294 14.6003 5.95651 14.4067 6.19514 14.4067H11.3816C11.6202 14.4067 11.8138 14.6003 11.8138 14.8389C11.8138 15.0776 11.6202 15.2711 11.3816 15.2711Z" fill="white"/>
<path id="Vector_10" d="M14.2626 8.35586H8.94929C8.71066 8.35586 8.51709 8.16229 8.51709 7.92366C8.51709 7.68502 8.71066 7.49146 8.94929 7.49146H14.2626C14.5013 7.49146 14.6948 7.68502 14.6948 7.92366C14.6948 8.16229 14.5013 8.35586 14.2626 8.35586Z" fill="white"/>
<path id="Vector_11" d="M14.2626 10.661H8.94929C8.71066 10.661 8.51709 10.4675 8.51709 10.2288C8.51709 9.9902 8.71066 9.79663 8.94929 9.79663H14.2626C14.5013 9.79663 14.6948 9.9902 14.6948 10.2288C14.6948 10.4675 14.5013 10.661 14.2626 10.661Z" fill="white"/>
</g>
<g id="Group 253">
<path id="Vector_12" d="M5.00393 9.50845H2.77595C2.53732 9.50845 2.34375 9.31488 2.34375 9.07625C2.34375 8.83761 2.53732 8.64404 2.77595 8.64404H5.00393C5.24257 8.64404 5.43614 8.83761 5.43614 9.07625C5.43614 9.31488 5.24257 9.50845 5.00393 9.50845Z" fill="#3A3A3A"/>
<path id="Vector_13" d="M3.88972 10.6227C3.65109 10.6227 3.45752 10.4291 3.45752 10.1905V7.96248C3.45752 7.72384 3.65109 7.53027 3.88972 7.53027C4.12836 7.53027 4.32193 7.72384 4.32193 7.96248V10.1905C4.32193 10.4291 4.12836 10.6227 3.88972 10.6227Z" fill="#3A3A3A"/>
<path id="Vector_14" d="M3.88983 12.9662C1.74483 12.9662 0 11.2214 0 9.07635C0 6.93136 1.74483 5.18652 3.88983 5.18652C6.03483 5.18652 7.77966 6.93136 7.77966 9.07635C7.77966 11.2214 6.03483 12.9662 3.88983 12.9662ZM3.88983 6.05093C2.22153 6.05093 0.864407 7.40805 0.864407 9.07635C0.864407 10.7447 2.22153 12.1018 3.88983 12.1018C5.55814 12.1018 6.91525 10.7447 6.91525 9.07635C6.91525 7.40805 5.55814 6.05093 3.88983 6.05093Z" fill="#3A3A3A"/>
</g>
</g>
</svg>
