<svg width="18" height="19" viewBox="0 0 18 19" fill="none" xmlns="http://www.w3.org/2000/svg">
<g id="Group">
<path id="Vector" fill-rule="evenodd" clip-rule="evenodd" d="M5.33239 11.6895L4.37746 15.4082L1.71514 16.6187L3.55755 12.4794L5.33239 11.6895ZM5.7625 2.47485C4.67022 3.56738 4.22241 4.92679 4.43145 6.51668C4.78614 9.20951 7.01982 12.0844 9.00008 13.3693C10.9802 12.0844 13.214 9.20951 13.5687 6.51668C13.7774 4.92661 13.3299 3.56738 12.2374 2.47485C10.4827 0.72065 7.51735 0.720649 5.7625 2.4774V2.47485ZM16.2851 16.6187L13.6225 15.4082L12.6676 11.6895L14.4428 12.4793L16.2851 16.6187ZM9 17.1675L5.53928 15.5056L6.29927 12.5435C7.07352 13.3847 7.91293 14.0797 8.71281 14.5413C8.80014 14.5917 8.89918 14.6182 9 14.6182C9.10082 14.6182 9.19987 14.5917 9.2872 14.5413C10.0868 14.0797 10.9262 13.3847 11.7007 12.5435L12.4609 15.5056L9 17.1675ZM2.59777 11.81L0.0498289 17.5368C0.00229493 17.6432 -0.0116631 17.7615 0.00981775 17.876C0.0312986 17.9906 0.0871964 18.0958 0.170051 18.1777C0.252905 18.2596 0.358775 18.3144 0.47353 18.3345C0.588285 18.3547 0.706466 18.3394 0.812301 18.2907L4.85898 16.452L8.75129 18.3241C8.82897 18.3613 8.91396 18.3805 9.00006 18.3805C9.08615 18.3805 9.17115 18.3613 9.24882 18.3241L13.1414 16.452L17.1876 18.2907C17.2934 18.3394 17.4116 18.3547 17.5263 18.3345C17.6411 18.3143 17.747 18.2596 17.8298 18.1777C17.9127 18.0958 17.9686 17.9906 17.9901 17.8761C18.0117 17.7615 17.9978 17.6432 17.9503 17.5368L15.4023 11.81C15.3444 11.6808 15.2407 11.5776 15.1113 11.5202L13.1565 10.6508C13.9456 9.40955 14.5283 8.02978 14.7076 6.66541C14.9623 4.73172 14.3888 3.00315 13.0498 1.66459C11.9768 0.589867 10.5386 0 9 0C7.46145 0 6.02331 0.589867 4.95052 1.66441C3.61147 3.00315 3.03811 4.73172 3.29254 6.66541C3.47203 8.0296 4.05447 9.40955 4.84358 10.6508L2.8891 11.5202C2.7594 11.5773 2.65557 11.6806 2.59777 11.81ZM7.13681 6.18838C7.13707 5.81993 7.24656 5.45983 7.45144 5.1536C7.65633 4.84737 7.94741 4.60876 8.28789 4.46794C8.62836 4.32712 9.00295 4.2904 9.36429 4.36244C9.72562 4.43448 10.0575 4.61203 10.3179 4.87265C10.5784 5.13328 10.7557 5.46527 10.8275 5.82666C10.8993 6.18805 10.8623 6.5626 10.7212 6.90298C10.5802 7.24336 10.3414 7.53428 10.035 7.73895C9.72863 7.94362 9.36845 8.05286 9 8.05286C8.50579 8.05233 8.032 7.85568 7.68266 7.5061C7.33332 7.15652 7.137 6.68259 7.13681 6.18838ZM12.012 6.18838C12.0122 6.78414 11.8358 7.36659 11.5049 7.86206C11.1741 8.35753 10.7038 8.74376 10.1534 8.9719C9.60309 9.20005 8.99744 9.25986 8.4131 9.14377C7.82876 9.02769 7.29197 8.74091 6.87062 8.31973C6.44927 7.89854 6.16229 7.36186 6.04598 6.77756C5.92967 6.19326 5.98925 5.58759 6.21719 5.03716C6.44512 4.48673 6.83118 4.01625 7.32652 3.68524C7.82186 3.35423 8.40424 3.17755 9 3.17755C9.79831 3.1786 10.5636 3.49612 11.1282 4.06049C11.6928 4.62487 12.0106 5.39008 12.012 6.18838Z" fill="#3A3A3A"/>
<path id="Vector_2" fill-rule="evenodd" clip-rule="evenodd" d="M12 5.99799C12.0004 6.59142 11.8248 7.17164 11.4954 7.66525C11.166 8.15886 10.6976 8.54369 10.1494 8.77106C9.6013 8.99843 8.99803 9.05813 8.41596 8.9426C7.83388 8.82707 7.29915 8.5415 6.87939 8.12203C6.45963 7.70255 6.17371 7.168 6.05779 6.58601C5.94187 6.00401 6.00117 5.40071 6.22817 4.85241C6.45517 4.30412 6.83969 3.83546 7.33308 3.50573C7.82647 3.176 8.40657 3 9 3C9.79498 3.00104 10.5571 3.31718 11.1195 3.87912C11.6818 4.44107 11.9984 5.20301 12 5.99799Z" fill="#FF7F00"/>
</g>
</svg>
