<svg width="17" height="18" viewBox="0 0 17 18" fill="none" xmlns="http://www.w3.org/2000/svg">
<g id="Group 771">
<g id="Layer 2">
<g id="Group">
<path id="Vector" d="M14.8257 17.8751H2.17449C1.80764 17.8747 1.45595 17.7288 1.19655 17.4694C0.937145 17.21 0.791217 16.8583 0.790771 16.4914V11.0515C0.790771 10.8942 0.85325 10.7434 0.964464 10.6322C1.07568 10.521 1.22652 10.4585 1.38379 10.4585C1.54107 10.4585 1.69191 10.521 1.80313 10.6322C1.91434 10.7434 1.97682 10.8942 1.97682 11.0515V16.4914C1.97743 16.5437 1.99846 16.5936 2.0354 16.6305C2.07234 16.6675 2.12226 16.6885 2.17449 16.6891H14.8257C14.8779 16.6885 14.9278 16.6675 14.9648 16.6305C15.0017 16.5936 15.0227 16.5437 15.0233 16.4914V11.0515C15.0233 10.8942 15.0858 10.7434 15.197 10.6322C15.3082 10.521 15.4591 10.4585 15.6164 10.4585C15.7736 10.4585 15.9245 10.521 16.0357 10.6322C16.1469 10.7434 16.2094 10.8942 16.2094 11.0515V16.4914C16.2089 16.8583 16.063 17.21 15.8036 17.4694C15.5442 17.7288 15.1925 17.8747 14.8257 17.8751Z" fill="white"/>
<path id="Vector_2" d="M10.0339 12.3399H9.68605C9.52877 12.3399 9.37793 12.2774 9.26672 12.1662C9.1555 12.055 9.09302 11.9042 9.09302 11.7469C9.09302 11.5896 9.1555 11.4388 9.26672 11.3276C9.37793 11.2164 9.52877 11.1539 9.68605 11.1539H10.0339L15.6379 10.4547C15.6855 10.4485 15.7294 10.4256 15.7617 10.39C15.7939 10.3544 15.8125 10.3085 15.814 10.2605V5.42132C15.8133 5.36908 15.7923 5.31916 15.7554 5.28222C15.7184 5.24528 15.6685 5.22426 15.6163 5.22364H1.38372C1.33149 5.22426 1.28156 5.24528 1.24462 5.28222C1.20769 5.31916 1.18666 5.36908 1.18605 5.42132V10.2605C1.18737 10.3081 1.20551 10.3536 1.23724 10.3891C1.26898 10.4246 1.31226 10.4477 1.3594 10.4543L6.94447 11.1508L7.31395 11.1539C7.47123 11.1539 7.62207 11.2164 7.73328 11.3276C7.8445 11.4388 7.90698 11.5896 7.90698 11.7469C7.90698 11.9042 7.8445 12.055 7.73328 12.1662C7.62207 12.2774 7.47123 12.3399 7.31395 12.3399H6.96609C6.88687 12.3416 6.80774 12.3333 6.73058 12.3152L1.21539 11.6315C0.880337 11.5908 0.571758 11.4289 0.347861 11.1763C0.123964 10.9238 0.000230258 10.598 0 10.2605V5.42132C0.000445694 5.05447 0.146373 4.70277 0.405775 4.44337C0.665176 4.18397 1.01687 4.03804 1.38372 4.0376H15.6163C15.9831 4.03804 16.3348 4.18397 16.5942 4.44337C16.8536 4.70277 16.9996 5.05447 17 5.42132V10.2605C16.9996 10.5984 16.8755 10.9245 16.6511 11.1772C16.4266 11.4299 16.1174 11.5916 15.7819 11.6318L10.2022 12.3276C10.1468 12.3385 10.0903 12.3426 10.0339 12.3399Z" fill="white"/>
<path id="Vector_3" d="M11.6627 5.22384H5.33716C5.1799 5.2238 5.02908 5.1613 4.91788 5.0501C4.80668 4.93889 4.74418 4.78808 4.74414 4.63081V2.25872C4.74459 1.89187 4.89051 1.54018 5.14992 1.28077C5.40932 1.02137 5.76101 0.875446 6.12786 0.875H10.872C11.2389 0.875446 11.5906 1.02137 11.85 1.28077C12.1094 1.54018 12.2553 1.89187 12.2558 2.25872V4.63081C12.2557 4.78808 12.1932 4.93889 12.082 5.0501C11.9708 5.1613 11.82 5.2238 11.6627 5.22384ZM5.93019 4.03779H11.0697V2.25872C11.0696 2.20633 11.0488 2.1561 11.0117 2.11905C10.9747 2.08201 10.9244 2.06115 10.872 2.06105H6.12786C6.07547 2.06115 6.02524 2.08201 5.9882 2.11905C5.95115 2.1561 5.93029 2.20633 5.93019 2.25872V4.03779Z" fill="white"/>
</g>
<path id="Vector_4" d="M9.29047 13.9216H7.70908C7.44702 13.9213 7.19576 13.8171 7.01046 13.6318C6.82516 13.4465 6.72095 13.1953 6.7207 12.9332V10.5611C6.72095 10.2991 6.82516 10.0478 7.01046 9.86251C7.19576 9.67721 7.44702 9.573 7.70908 9.57275H9.29047C9.55253 9.573 9.80378 9.67721 9.98909 9.86251C10.1744 10.0478 10.2786 10.2991 10.2788 10.5611V12.9332C10.2786 13.1953 10.1744 13.4465 9.98909 13.6318C9.80378 13.8171 9.55253 13.9213 9.29047 13.9216ZM7.90675 12.7355H9.0928V10.7588H7.90675V12.7355Z" fill="white"/>
</g>
</g>
</svg>
