<svg width="17" height="18" viewBox="0 0 17 18" fill="none" xmlns="http://www.w3.org/2000/svg">
<g id="Group 771">
<g id="Layer 2">
<g id="Group">
<path id="Vector" d="M14.8257 17.875H2.17449C1.80764 17.8746 1.45595 17.7287 1.19655 17.4692C0.937145 17.2098 0.791217 16.8582 0.790771 16.4913V11.0514C0.790771 10.8941 0.85325 10.7433 0.964464 10.6321C1.07568 10.5209 1.22652 10.4584 1.38379 10.4584C1.54107 10.4584 1.69191 10.5209 1.80313 10.6321C1.91434 10.7433 1.97682 10.8941 1.97682 11.0514V16.4913C1.97743 16.5435 1.99846 16.5935 2.0354 16.6304C2.07234 16.6673 2.12226 16.6884 2.17449 16.689H14.8257C14.8779 16.6884 14.9278 16.6673 14.9648 16.6304C15.0017 16.5935 15.0227 16.5435 15.0233 16.4913V11.0514C15.0233 10.8941 15.0858 10.7433 15.197 10.6321C15.3082 10.5209 15.4591 10.4584 15.6164 10.4584C15.7736 10.4584 15.9245 10.5209 16.0357 10.6321C16.1469 10.7433 16.2094 10.8941 16.2094 11.0514V16.4913C16.2089 16.8582 16.063 17.2098 15.8036 17.4692C15.5442 17.7287 15.1925 17.8746 14.8257 17.875Z" fill="#3A3A3A"/>
<path id="Vector_2" d="M10.0339 12.3402H9.68605C9.52877 12.3402 9.37793 12.2777 9.26672 12.1665C9.1555 12.0553 9.09302 11.9044 9.09302 11.7471C9.09302 11.5899 9.1555 11.439 9.26672 11.3278C9.37793 11.2166 9.52877 11.1541 9.68605 11.1541H10.0339L15.6379 10.4549C15.6855 10.4488 15.7294 10.4258 15.7617 10.3902C15.7939 10.3547 15.8125 10.3087 15.814 10.2607V5.42156C15.8133 5.36933 15.7923 5.3194 15.7554 5.28247C15.7184 5.24553 15.6685 5.2245 15.6163 5.22389H1.38372C1.33149 5.2245 1.28156 5.24553 1.24462 5.28247C1.20769 5.3194 1.18666 5.36933 1.18605 5.42156V10.2607C1.18737 10.3083 1.20551 10.3539 1.23724 10.3894C1.26898 10.4248 1.31226 10.4479 1.3594 10.4545L6.94447 11.151L7.31395 11.1541C7.47123 11.1541 7.62207 11.2166 7.73328 11.3278C7.8445 11.439 7.90698 11.5899 7.90698 11.7471C7.90698 11.9044 7.8445 12.0553 7.73328 12.1665C7.62207 12.2777 7.47123 12.3402 7.31395 12.3402H6.96609C6.88687 12.3418 6.80774 12.3335 6.73058 12.3155L1.21539 11.6317C0.880337 11.591 0.571758 11.4291 0.347861 11.1766C0.123964 10.924 0.000230258 10.5982 0 10.2607V5.42156C0.000445694 5.05471 0.146373 4.70302 0.405775 4.44362C0.665176 4.18421 1.01687 4.03829 1.38372 4.03784H15.6163C15.9831 4.03829 16.3348 4.18421 16.5942 4.44362C16.8536 4.70302 16.9996 5.05471 17 5.42156V10.2607C16.9996 10.5987 16.8755 10.9248 16.6511 11.1774C16.4266 11.4301 16.1174 11.5918 15.7819 11.6321L10.2022 12.3278C10.1468 12.3387 10.0903 12.3428 10.0339 12.3402Z" fill="#3A3A3A"/>
<path id="Vector_3" d="M11.6627 5.22384H5.33716C5.1799 5.2238 5.02908 5.1613 4.91788 5.0501C4.80668 4.93889 4.74418 4.78808 4.74414 4.63081V2.25872C4.74459 1.89187 4.89051 1.54018 5.14992 1.28077C5.40932 1.02137 5.76101 0.875446 6.12786 0.875H10.872C11.2389 0.875446 11.5906 1.02137 11.85 1.28077C12.1094 1.54018 12.2553 1.89187 12.2558 2.25872V4.63081C12.2557 4.78808 12.1932 4.93889 12.082 5.0501C11.9708 5.1613 11.82 5.2238 11.6627 5.22384ZM5.93019 4.03779H11.0697V2.25872C11.0696 2.20633 11.0488 2.1561 11.0117 2.11905C10.9747 2.08201 10.9244 2.06115 10.872 2.06105H6.12786C6.07547 2.06115 6.02524 2.08201 5.9882 2.11905C5.95115 2.1561 5.93029 2.20633 5.93019 2.25872V4.03779Z" fill="#3A3A3A"/>
</g>
<path id="Vector_4" d="M9.29047 13.9215H7.70908C7.44702 13.9212 7.19576 13.817 7.01046 13.6317C6.82516 13.4464 6.72095 13.1952 6.7207 12.9331V10.561C6.72095 10.2989 6.82516 10.0477 7.01046 9.86239C7.19576 9.67708 7.44702 9.57287 7.70908 9.57263H9.29047C9.55253 9.57287 9.80378 9.67708 9.98909 9.86239C10.1744 10.0477 10.2786 10.2989 10.2788 10.561V12.9331C10.2786 13.1952 10.1744 13.4464 9.98909 13.6317C9.80378 13.817 9.55253 13.9212 9.29047 13.9215ZM7.90675 12.7354H9.0928V10.7587H7.90675V12.7354Z" fill="#FF7F00"/>
</g>
</g>
</svg>
