<svg width="13" height="16" viewBox="0 0 13 16" fill="none" xmlns="http://www.w3.org/2000/svg">
<g id="User">
<path id="Vector" d="M6.49901 6.49997C8.15586 6.49997 9.499 5.15683 9.499 3.49999C9.499 1.84314 8.15586 0.5 6.49901 0.5C4.84216 0.5 3.49902 1.84314 3.49902 3.49999C3.49902 5.15683 4.84216 6.49997 6.49901 6.49997Z" fill="#FF7F00"/>
<path id="Vector_2" d="M6.49925 6.99997C7.19148 6.99997 7.86817 6.7947 8.44374 6.41012C9.01931 6.02554 9.46791 5.47891 9.73282 4.83937C9.99772 4.19983 10.067 3.4961 9.93199 2.81717C9.79694 2.13824 9.4636 1.51461 8.97412 1.02512C8.48463 0.535642 7.861 0.202301 7.18207 0.0672528C6.50314 -0.0677949 5.79941 0.00151651 5.15987 0.266422C4.52033 0.531328 3.9737 0.97993 3.58912 1.5555C3.20454 2.13107 2.99927 2.80776 2.99927 3.49999C3.00035 4.42791 3.36945 5.31751 4.02559 5.97365C4.68173 6.62979 5.57133 6.99889 6.49925 6.99997ZM6.49925 0.999997C6.9937 0.999997 7.47705 1.14662 7.88817 1.42132C8.29929 1.69602 8.61972 2.08647 8.80894 2.54328C8.99816 3.0001 9.04767 3.50276 8.95121 3.98771C8.85474 4.47266 8.61664 4.91812 8.26701 5.26775C7.91738 5.61738 7.47193 5.85548 6.98698 5.95194C6.50203 6.0484 5.99936 5.99889 5.54255 5.80968C5.08574 5.62046 4.69529 5.30003 4.42059 4.88891C4.14589 4.47779 3.99926 3.99444 3.99926 3.49999C4.00004 2.83719 4.26368 2.20176 4.73235 1.73309C5.20102 1.26442 5.83645 1.00078 6.49925 0.999997Z" fill="#3A3A3A"/>
<path id="Vector_3" d="M12.9747 13.3757C12.71 11.8564 11.913 10.4811 10.7264 9.49602C9.53979 8.51097 8.04122 7.98063 6.49917 8.00003C4.95712 7.98063 3.45855 8.51097 2.27196 9.49602C1.08538 10.4811 0.288324 11.8564 0.0236103 13.3757C-0.0230939 13.6951 -0.000333293 14.0208 0.0903382 14.3306C0.18101 14.6403 0.337457 14.9269 0.548998 15.1707C0.776823 15.4327 1.05854 15.6424 1.37489 15.7856C1.69125 15.9287 2.03478 16.0018 2.382 16H10.6163C10.9636 16.0018 11.3071 15.9287 11.6234 15.7856C11.9398 15.6424 12.2215 15.4327 12.4493 15.1707C12.6609 14.9269 12.8173 14.6403 12.908 14.3306C12.9987 14.0208 13.0214 13.6951 12.9747 13.3757ZM11.692 14.5178C11.558 14.6708 11.3925 14.7931 11.2068 14.8763C11.0212 14.9595 10.8198 15.0017 10.6163 15H2.382C2.17857 15.0017 1.97716 14.9595 1.79153 14.8763C1.60589 14.7931 1.44039 14.6708 1.30632 14.5178C1.18786 14.3835 1.10021 14.225 1.04952 14.0532C0.998824 13.8815 0.986313 13.7008 1.01286 13.5237C1.24098 12.2409 1.91833 11.0812 2.92361 10.2523C3.92888 9.42342 5.1964 8.97949 6.49917 9.00002C7.80193 8.97949 9.06946 9.42342 10.0747 10.2523C11.08 11.0812 11.7574 12.2409 11.9855 13.5237C12.012 13.7008 11.9995 13.8815 11.9488 14.0532C11.8981 14.225 11.8105 14.3835 11.692 14.5178Z" fill="#3A3A3A"/>
</g>
</svg>
