<svg width="10" height="12" viewBox="0 0 10 12" fill="none" xmlns="http://www.w3.org/2000/svg">
<path d="M9.62147 4.46261L6.27419 10.2603C5.94886 10.8237 5.5318 11.2589 5.03443 11.554C4.57502 11.8264 4.05592 11.9719 3.53022 11.9756C2.92246 11.9762 2.32898 11.8182 1.80668 11.5166C1.28439 11.2151 0.850775 10.7802 0.547412 10.2535C0.287766 9.79639 0.154227 9.27407 0.160454 8.73998C0.167248 8.16181 0.335658 7.58293 0.660981 7.01945L3.99064 1.25231C4.0493 1.15072 4.14466 1.07586 4.25575 1.04421C4.36684 1.01256 4.48456 1.02672 4.58301 1.08355C4.68146 1.14039 4.75258 1.23527 4.78072 1.3473C4.80885 1.45933 4.79171 1.57934 4.73305 1.68094L1.40338 7.44811C0.938447 8.25339 0.902331 9.09019 1.30168 9.80436C1.74121 10.5904 2.64157 11.1102 3.54208 11.0979C4.36024 11.0866 5.06685 10.6369 5.53178 9.83164L8.87262 4.04513C9.39741 2.99735 8.95698 2.13807 8.28543 1.75035C7.61388 1.36263 6.64946 1.4107 6.00447 2.3894L3.56259 6.61887C3.37459 6.94449 3.30782 7.25827 3.36935 7.52645C3.39472 7.63586 3.44194 7.73825 3.50812 7.82737C3.5743 7.91649 3.65805 7.99045 3.75426 8.04475C4.15947 8.2787 4.78938 8.19498 5.21473 7.45825L7.19873 4.02186C7.25739 3.92026 7.35275 3.84541 7.46384 3.81376C7.57493 3.78211 7.69265 3.79626 7.7911 3.8531C7.88955 3.90994 7.96067 4.00481 7.9888 4.11685C8.01694 4.22888 7.9998 4.34889 7.94114 4.45049L5.95714 7.88687C5.55798 8.57823 5.04715 8.85275 4.6889 8.96128C4.45861 9.03108 4.21815 9.05373 3.98168 9.02791C3.74521 9.00209 3.5175 8.92831 3.31196 8.81091C3.11543 8.69922 2.94449 8.54735 2.8096 8.36457C2.67471 8.18179 2.5787 7.97196 2.52744 7.74789C2.44872 7.40498 2.43562 6.85641 2.82016 6.19038L5.26863 1.9495C5.27278 1.9423 5.27714 1.93523 5.28169 1.92826C5.70756 1.27568 6.28678 0.85215 6.9567 0.703478C7.55513 0.570655 8.18414 0.670344 8.72776 0.984207C9.27139 1.29807 9.67221 1.79295 9.85641 2.37769C10.0626 3.03218 9.98541 3.74556 9.63322 4.44068C9.62944 4.44809 9.6256 4.45546 9.62147 4.46261Z" fill="#FF7F00"/>
</svg>
