<svg width="29" height="29" viewBox="0 0 29 29" fill="none" xmlns="http://www.w3.org/2000/svg">
<path d="M8.3313 21.8893H16.6592V25.0394H8.3313V21.8893Z" fill="#FF7F00"/>
<path d="M24.429 10.474C24.1162 10.474 23.8626 10.7276 23.8626 11.0404V23.1128C23.8626 23.2479 23.8425 23.3784 23.8057 23.5017L15.5377 16.754L22.2979 10.2571C22.5234 10.0403 22.5306 9.68176 22.3138 9.45622C22.097 9.23073 21.7385 9.22348 21.513 9.4403L14.1911 16.477C13.7248 16.8941 13.1237 17.1237 12.4977 17.1237C11.8718 17.1237 11.2707 16.8941 10.8043 16.477L1.66133 7.69016C1.89151 7.51169 2.1801 7.40509 2.49326 7.40509H22.5021C22.815 7.40509 23.0685 7.15151 23.0685 6.83868C23.0685 6.52586 22.815 6.27228 22.5021 6.27228H2.49326C1.11848 6.27222 0 7.39059 0 8.7652V23.1128C0 24.4874 1.11848 25.6058 2.49326 25.6058H22.5021C23.8769 25.6058 24.9954 24.4874 24.9954 23.1128V11.0404C24.9954 10.7276 24.7418 10.474 24.429 10.474ZM1.18968 23.5014C1.15286 23.3783 1.13281 23.2479 1.13281 23.1128V8.7652C1.13281 8.76129 1.1331 8.7575 1.1331 8.75359L9.45468 16.7511L1.18968 23.5014ZM2.49326 24.473C2.29519 24.473 2.10703 24.4301 1.93711 24.3537L10.2979 17.525C10.9309 17.9988 11.7003 18.2565 12.4977 18.2565C13.2937 18.2565 14.0617 17.9998 14.694 17.5277L23.0581 24.3538C22.8882 24.4301 22.7002 24.473 22.5022 24.473H2.49326Z" fill="#3A3A3A"/>
<path d="M16.0229 9.7276C16.0229 9.41477 15.7693 9.16119 15.4565 9.16119H9.53882C9.22599 9.16119 8.97241 9.41477 8.97241 9.7276C8.97241 10.0404 9.22599 10.294 9.53882 10.294H15.4566C15.7693 10.294 16.0229 10.0404 16.0229 9.7276Z" fill="#3A3A3A"/>
<path d="M10.6602 11.3686C10.3473 11.3686 10.0938 11.6222 10.0938 11.935C10.0938 12.2478 10.3473 12.5014 10.6602 12.5014H14.3306C14.6434 12.5014 14.897 12.2478 14.897 11.935C14.897 11.6222 14.6434 11.3686 14.3306 11.3686H10.6602Z" fill="#3A3A3A"/>
<path d="M24.4289 12.5348C26.9534 12.5348 28.9999 10.4886 28.9999 7.9645C28.9999 5.44041 26.9534 3.39423 24.4289 3.39423C21.9044 3.39423 19.8579 5.44041 19.8579 7.9645C19.8579 10.4886 21.9044 12.5348 24.4289 12.5348Z" fill="#FF7F00"/>
<path d="M24.7268 9.92429C24.414 9.92429 24.1604 9.67071 24.1604 9.35788V7.13751H24.1311C23.8183 7.13751 23.5647 6.88393 23.5647 6.57111C23.5647 6.25828 23.8183 6.0047 24.1311 6.0047H24.7268C25.0397 6.0047 25.2933 6.25828 25.2933 6.57111V9.35788C25.2933 9.67071 25.0397 9.92429 24.7268 9.92429Z" fill="white"/>
</svg>
