<svg width="17" height="16" viewBox="0 0 17 16" fill="none" xmlns="http://www.w3.org/2000/svg">
<path d="M9.37019 0.122011C9.24906 0.0217403 9.08862 -0.0198614 8.9335 0.0089398L0.4335 1.60901C0.181687 1.65594 0 1.87568 0 2.13276V13.8666C0 14.1226 0.181687 14.3434 0.4335 14.3903L8.9335 15.9904C8.96537 15.9968 8.99938 16 9.03125 16C9.15344 16 9.27456 15.9573 9.37019 15.8773C9.49238 15.776 9.5625 15.6245 9.5625 15.4666V0.532695C9.5625 0.373755 9.49238 0.223349 9.37019 0.122011ZM8.5 14.8234L1.0625 13.4239V2.57545L8.5 1.17592V14.8234Z" fill="white"/>
<path d="M16.4688 2.13269H9.03125C8.738 2.13269 8.5 2.37163 8.5 2.66605C8.5 2.96046 8.738 3.1994 9.03125 3.1994H15.9375V12.7998H9.03125C8.738 12.7998 8.5 13.0387 8.5 13.3332C8.5 13.6276 8.738 13.8665 9.03125 13.8665H16.4688C16.762 13.8665 17 13.6276 17 13.3332V2.66605C17 2.37163 16.762 2.13269 16.4688 2.13269Z" fill="white"/>
<path d="M11.1562 4.26611H9.03125C8.738 4.26611 8.5 4.50506 8.5 4.79947C8.5 5.09388 8.738 5.33282 9.03125 5.33282H11.1562C11.4495 5.33282 11.6875 5.09388 11.6875 4.79947C11.6875 4.50506 11.4495 4.26611 11.1562 4.26611Z" fill="white"/>
<path d="M11.1562 6.39954H9.03125C8.738 6.39954 8.5 6.63848 8.5 6.93289C8.5 7.2273 8.738 7.46625 9.03125 7.46625H11.1562C11.4495 7.46625 11.6875 7.2273 11.6875 6.93289C11.6875 6.63848 11.4495 6.39954 11.1562 6.39954Z" fill="white"/>
<path d="M11.1562 8.53296H9.03125C8.738 8.53296 8.5 8.7719 8.5 9.06631C8.5 9.36073 8.738 9.59967 9.03125 9.59967H11.1562C11.4495 9.59967 11.6875 9.36073 11.6875 9.06631C11.6875 8.7719 11.4495 8.53296 11.1562 8.53296Z" fill="white"/>
<path d="M11.1562 10.6664H9.03125C8.738 10.6664 8.5 10.9053 8.5 11.1997C8.5 11.4941 8.738 11.7331 9.03125 11.7331H11.1562C11.4495 11.7331 11.6875 11.4941 11.6875 11.1997C11.6875 10.9053 11.4495 10.6664 11.1562 10.6664Z" fill="white"/>
<path d="M14.3438 4.26611H13.2812C12.988 4.26611 12.75 4.50506 12.75 4.79947C12.75 5.09388 12.988 5.33282 13.2812 5.33282H14.3438C14.637 5.33282 14.875 5.09388 14.875 4.79947C14.875 4.50506 14.637 4.26611 14.3438 4.26611Z" fill="white"/>
<path d="M14.3438 6.39954H13.2812C12.988 6.39954 12.75 6.63848 12.75 6.93289C12.75 7.2273 12.988 7.46625 13.2812 7.46625H14.3438C14.637 7.46625 14.875 7.2273 14.875 6.93289C14.875 6.63848 14.637 6.39954 14.3438 6.39954Z" fill="white"/>
<path d="M14.3438 8.53296H13.2812C12.988 8.53296 12.75 8.7719 12.75 9.06631C12.75 9.36073 12.988 9.59967 13.2812 9.59967H14.3438C14.637 9.59967 14.875 9.36073 14.875 9.06631C14.875 8.7719 14.637 8.53296 14.3438 8.53296Z" fill="white"/>
<path d="M14.3438 10.6664H13.2812C12.988 10.6664 12.75 10.9053 12.75 11.1997C12.75 11.4941 12.988 11.7331 13.2812 11.7331H14.3438C14.637 11.7331 14.875 11.4941 14.875 11.1997C14.875 10.9053 14.637 10.6664 14.3438 10.6664Z" fill="white"/>
<path d="M7.30666 9.78223L3.58791 5.51539C3.39241 5.29244 3.05773 5.27111 2.83779 5.46525C2.61679 5.65939 2.59448 5.99647 2.78785 6.21728L6.5066 10.4841C6.61179 10.6047 6.75841 10.6665 6.9061 10.6665C7.03041 10.6665 7.15473 10.6228 7.25673 10.5343C7.47773 10.3401 7.50004 10.0041 7.30666 9.78223Z" fill="white"/>
<path d="M7.23245 4.91257C7.00083 4.73016 6.6672 4.77389 6.48658 5.00537L2.76783 9.80557C2.58827 10.0381 2.6297 10.3741 2.86133 10.5544C2.95908 10.6301 3.07383 10.6664 3.18752 10.6664C3.34477 10.6664 3.50202 10.596 3.60614 10.4616L7.32489 5.6614C7.50552 5.42779 7.46408 5.09284 7.23245 4.91257Z" fill="white"/>
</svg>
