<svg width="12" height="12" viewBox="0 0 12 12" fill="none" xmlns="http://www.w3.org/2000/svg">
<path d="M11.637 10.1735H10.9705V3.89359C10.9705 3.69318 10.808 3.53069 10.6076 3.53069H8.02004C7.81962 3.53069 7.65714 3.69318 7.65714 3.89359V5.41187H5.43314C5.23272 5.41187 5.07024 5.57435 5.07024 5.77477V7.16412H2.84557C2.64515 7.16412 2.48267 7.3266 2.48267 7.52702V10.1735H1.82655V0.363039C1.82655 0.162622 1.66406 0.00013931 1.46365 0.00013931C1.26323 0.00013931 1.10075 0.162622 1.10075 0.363039V10.1735H0.3629C0.162482 10.1735 0 10.336 0 10.5364C0 10.7368 0.162482 10.8993 0.3629 10.8993H1.10075V11.6371C1.10075 11.8375 1.26323 12 1.46365 12C1.66406 12 1.82655 11.8375 1.82655 11.6371V10.8993H11.637C11.8374 10.8993 11.9999 10.7368 11.9999 10.5364C11.9999 10.336 11.8374 10.1735 11.637 10.1735H11.637ZM8.38294 4.25649H10.2447V10.1735H8.38294V4.25649ZM5.79604 6.13767H7.65714V10.1735H5.79604V6.13767ZM3.20847 7.88992H5.07024V10.1735H3.20847V7.88992ZM2.54884 4.80203C2.43346 4.63814 2.47277 4.41177 2.63666 4.29636L6.24746 1.75406C6.38321 1.65849 6.5665 1.6672 6.69255 1.77523L7.3801 2.36446L9.68178 0.743842L9.54719 0.720568C9.3497 0.686383 9.21731 0.49857 9.2515 0.30108C9.28568 0.10359 9.47345 -0.0288443 9.67096 0.00538926L10.6695 0.178226C10.7644 0.194654 10.8488 0.248121 10.9043 0.326822C10.9597 0.405522 10.9816 0.50307 10.9651 0.597956L10.7916 1.59646C10.761 1.7729 10.6077 1.89731 10.4345 1.89731C10.4139 1.89731 10.393 1.89554 10.372 1.89189C10.1745 1.85758 10.0422 1.66967 10.0766 1.47221L10.1001 1.33701L7.56716 3.1204C7.43144 3.21596 7.24815 3.20725 7.12208 3.09923L6.43453 2.50998L3.0545 4.8898C2.991 4.93451 2.91808 4.95599 2.84588 4.95599C2.73179 4.95599 2.61951 4.90236 2.54884 4.80198V4.80203Z" fill="white"/>
</svg>
