<svg width="28" height="26" viewBox="0 0 28 26" fill="none" xmlns="http://www.w3.org/2000/svg">
<g id="Group 2">
<g id="Group">
<path id="Vector" d="M20.0329 9.06331H18.1583V6.38759C18.1583 2.94495 15.215 0.144226 11.5972 0.144226C7.97942 0.144226 5.03618 2.94495 5.03618 6.38759V9.06331H3.16159C1.86963 9.06331 0.818359 10.0637 0.818359 11.2931V12.6399C0.818359 12.8861 1.02799 13.0858 1.28701 13.0858C1.54603 13.0858 1.75565 12.8861 1.75565 12.6399V11.2931C1.75565 10.5553 2.38631 9.95522 3.16159 9.95522H20.0329C20.8082 9.95522 21.4388 10.5553 21.4388 11.2931V13.0769C21.4388 13.3232 21.6484 13.5229 21.9075 13.5229C22.1665 13.5229 22.3761 13.3232 22.3761 13.0769V11.2931C22.3761 10.0637 21.3248 9.06331 20.0329 9.06331ZM5.97347 6.38759C5.97347 3.43684 8.4961 1.03613 11.5972 1.03613C14.6984 1.03613 17.221 3.43684 17.221 6.38759V9.06331H15.3464V6.38759C15.3464 4.42044 13.6645 2.81995 11.5972 2.81995C9.52998 2.81995 7.84806 4.42044 7.84806 6.38759V9.06331H5.97347V6.38759ZM14.4091 9.06331H8.78535V6.38759C8.78535 4.9121 10.0467 3.71186 11.5972 3.71186C13.1478 3.71186 14.4091 4.9121 14.4091 6.38759V9.06331Z" fill="#3A3A3A"/>
<path id="Vector_2" d="M1.29679 15.4171C1.56123 15.4171 1.77523 15.2174 1.77523 14.9712V14.1501C1.77523 13.9038 1.56123 13.7041 1.29679 13.7041C1.03236 13.7041 0.818359 13.9038 0.818359 14.1501V14.9712C0.818359 15.2174 1.03236 15.4171 1.29679 15.4171Z" fill="#3A3A3A"/>
<path id="Vector_3" d="M21.9075 23.3339C21.6484 23.3339 21.4388 23.5336 21.4388 23.7799C21.4388 24.5176 20.8082 25.1177 20.0329 25.1177H3.16159C2.38631 25.1177 1.75565 24.5176 1.75565 23.7799V16.6668C1.75565 16.4205 1.54603 16.2208 1.28701 16.2208C1.02799 16.2208 0.818359 16.4205 0.818359 16.6668V23.7799C0.818359 25.0093 1.86963 26.0096 3.16159 26.0096H20.0329C21.3248 26.0096 22.3761 25.0093 22.3761 23.7799C22.3761 23.5336 22.1665 23.3339 21.9075 23.3339Z" fill="#3A3A3A"/>
</g>
<g id="Group_2">
<path id="Vector_4" d="M26.1252 14.4148H6.91072C5.87684 14.4148 5.03613 15.215 5.03613 16.1986V20.6582C5.03613 21.6418 5.87684 22.442 6.91072 22.442H16.3537C16.6127 22.442 16.8223 22.2423 16.8223 21.996C16.8223 21.7498 16.6127 21.5501 16.3537 21.5501H6.91072C6.39404 21.5501 5.97343 21.1501 5.97343 20.6582V16.1986C5.97343 15.7067 6.39404 15.3067 6.91072 15.3067H26.1252C26.6419 15.3067 27.0625 15.7067 27.0625 16.1986V20.6582C27.0625 21.1501 26.6419 21.5501 26.1252 21.5501H19.0031C18.7441 21.5501 18.5344 21.7498 18.5344 21.996C18.5344 22.2423 18.7441 22.442 19.0031 22.442H26.1252C27.1591 22.442 27.9998 21.6418 27.9998 20.6582V16.1986C27.9998 15.215 27.1591 14.4148 26.1252 14.4148Z" fill="#FF7F00"/>
<path id="Vector_5" d="M11.1116 17.5365C10.9817 17.3228 10.6947 17.2499 10.4713 17.3732L9.95691 17.6558V17.0905C9.95691 16.8443 9.74729 16.6446 9.48827 16.6446C9.22925 16.6446 9.01962 16.8443 9.01962 17.0905V17.6558L8.50519 17.3732C8.28094 17.2499 7.99446 17.3228 7.86492 17.5365C7.73539 17.7496 7.81229 18.0225 8.03654 18.1457L8.55093 18.4284L8.03654 18.711C7.81229 18.8343 7.73539 19.1071 7.86492 19.3203C7.95186 19.4633 8.10932 19.5433 8.27133 19.5433C8.35095 19.5433 8.43152 19.5241 8.50519 19.4836L9.01962 19.2009V19.7662C9.01962 20.0125 9.22925 20.2122 9.48827 20.2122C9.74729 20.2122 9.95691 20.0125 9.95691 19.7662V19.2009L10.4713 19.4836C10.545 19.5241 10.6256 19.5433 10.7052 19.5433C10.8672 19.5433 11.0246 19.4633 11.1116 19.3203C11.2411 19.1071 11.1642 18.8343 10.94 18.711L10.4256 18.4284L10.94 18.1457C11.1642 18.0225 11.2411 17.7496 11.1116 17.5365Z" fill="#FF7F00"/>
<path id="Vector_6" d="M15.7981 17.5365C15.6682 17.3228 15.3812 17.2499 15.1579 17.3732L14.6434 17.6558V17.0905C14.6434 16.8443 14.4338 16.6446 14.1748 16.6446C13.9158 16.6446 13.7061 16.8443 13.7061 17.0905V17.6558L13.1917 17.3732C12.9675 17.2499 12.681 17.3228 12.5514 17.5365C12.4219 17.7496 12.4988 18.0225 12.7231 18.1457L13.2375 18.4284L12.7231 18.711C12.4988 18.8343 12.4219 19.1071 12.5514 19.3203C12.6384 19.4633 12.7958 19.5433 12.9579 19.5433C13.0375 19.5433 13.118 19.5241 13.1917 19.4836L13.7061 19.2009V19.7662C13.7061 20.0125 13.9158 20.2122 14.1748 20.2122C14.4338 20.2122 14.6434 20.0125 14.6434 19.7662V19.2009L15.1579 19.4836C15.2315 19.5241 15.3121 19.5433 15.3917 19.5433C15.5537 19.5433 15.7112 19.4633 15.7981 19.3203C15.9277 19.1071 15.8508 18.8343 15.6265 18.711L15.1121 18.4284L15.6265 18.1457C15.8508 18.0225 15.9277 17.7496 15.7981 17.5365Z" fill="#FF7F00"/>
<path id="Vector_7" d="M19.3298 19.7663V19.201L19.8443 19.4837C19.9179 19.5241 19.9985 19.5433 20.0781 19.5433C20.2401 19.5433 20.3976 19.4634 20.4845 19.3203C20.6141 19.1072 20.5372 18.8343 20.3129 18.7111L19.7985 18.4284L20.3129 18.1458C20.5372 18.0225 20.6141 17.7497 20.4845 17.5365C20.355 17.3229 20.0676 17.25 19.8443 17.3732L19.3298 17.6559V17.0906C19.3298 16.8444 19.1202 16.6447 18.8612 16.6447C18.6022 16.6447 18.3925 16.8444 18.3925 17.0906V17.6559L17.8781 17.3732C17.6539 17.25 17.3674 17.3229 17.2378 17.5365C17.1083 17.7497 17.1852 18.0225 17.4095 18.1458L17.9239 18.4284L17.4095 18.7111C17.1852 18.8343 17.1083 19.1072 17.2378 19.3203C17.3248 19.4634 17.4822 19.5433 17.6443 19.5433C17.7239 19.5433 17.8044 19.5241 17.8781 19.4837L18.3925 19.201V19.7663C18.3925 20.0125 18.6022 20.2122 18.8612 20.2122C19.1202 20.2122 19.3298 20.0125 19.3298 19.7663Z" fill="#FF7F00"/>
<path id="Vector_8" d="M21.9244 19.3203C22.0113 19.4633 22.1688 19.5433 22.3308 19.5433C22.4104 19.5433 22.491 19.5241 22.5646 19.4836L23.0791 19.2009V19.7662C23.0791 20.0125 23.2887 20.2122 23.5477 20.2122C23.8067 20.2122 24.0164 20.0125 24.0164 19.7662V19.2009L24.5308 19.4836C24.6045 19.5241 24.685 19.5433 24.7647 19.5433C24.9267 19.5433 25.0841 19.4633 25.1711 19.3203C25.3006 19.1071 25.2237 18.8343 24.9994 18.711L24.4851 18.4284L24.9994 18.1457C25.2237 18.0225 25.3006 17.7496 25.1711 17.5365C25.0411 17.3228 24.7542 17.2499 24.5308 17.3732L24.0164 17.6558V17.0905C24.0164 16.8443 23.8067 16.6446 23.5477 16.6446C23.2887 16.6446 23.0791 16.8443 23.0791 17.0905V17.6558L22.5646 17.3732C22.3404 17.2499 22.0539 17.3228 21.9244 17.5365C21.7948 17.7496 21.8717 18.0225 22.096 18.1457L22.6104 18.4284L22.096 18.711C21.8717 18.8343 21.7948 19.1071 21.9244 19.3203Z" fill="#FF7F00"/>
</g>
</g>
</svg>
