<svg width="15" height="13" viewBox="0 0 15 13" fill="none" xmlns="http://www.w3.org/2000/svg">
<path d="M12.6366 2.66808H10.6684L10.4392 1.98194C10.3287 1.64878 10.1157 1.3589 9.83056 1.15357C9.54538 0.948246 9.20256 0.837946 8.85091 0.83838H6.01905C5.6675 0.838112 5.32481 0.948484 5.03974 1.15379C4.75467 1.3591 4.54174 1.64889 4.43124 1.98194L4.20159 2.66808H2.23332C1.7895 2.66856 1.36399 2.84472 1.05016 3.15789C0.736334 3.47107 0.559811 3.89569 0.559326 4.33859V11.0627C0.560296 11.5053 0.737033 11.9295 1.05081 12.2422C1.36459 12.555 1.78981 12.7309 2.23332 12.7314H12.6385C13.082 12.7304 13.507 12.5541 13.8204 12.2409C14.1339 11.9278 14.3102 11.5035 14.3106 11.0609V4.33676C14.3097 3.89418 14.1329 3.47003 13.8192 3.15725C13.5054 2.84446 13.0801 2.66856 12.6366 2.66808ZM13.3939 11.0609C13.3936 11.2612 13.3138 11.4533 13.1718 11.595C13.0299 11.7366 12.8374 11.8163 12.6366 11.8166H2.23332C2.03256 11.8163 1.8401 11.7366 1.69814 11.595C1.55618 11.4533 1.47632 11.2612 1.47608 11.0609V4.33676C1.47681 4.13674 1.55688 3.94514 1.69878 3.80387C1.84069 3.66261 2.03288 3.58316 2.23332 3.58292H4.53208C4.62824 3.58285 4.72195 3.5526 4.79993 3.49645C4.87792 3.4403 4.93623 3.36109 4.96662 3.27005L5.30078 2.26966C5.35096 2.11919 5.44735 1.98832 5.57629 1.89561C5.70522 1.80291 5.86014 1.75309 6.01905 1.75323H8.85091C9.00989 1.75305 9.16489 1.80291 9.29384 1.89571C9.4228 1.98851 9.51915 2.11952 9.56918 2.27012L9.90334 3.27005C9.93373 3.36109 9.99204 3.4403 10.07 3.49645C10.148 3.5526 10.2417 3.58285 10.3379 3.58292H12.6366C12.8374 3.58317 13.0299 3.66286 13.1718 3.80452C13.3138 3.94618 13.3936 4.13825 13.3939 4.33859V11.0609Z" fill="white"/>
<path d="M7.52792 3.99756C6.84798 3.99756 6.18331 4.19918 5.61796 4.57694C5.05261 4.95469 4.61198 5.49161 4.35178 6.11979C4.09158 6.74797 4.0235 7.4392 4.15615 8.10607C4.2888 8.77294 4.61622 9.38551 5.09701 9.8663C5.57779 10.3471 6.19036 10.6745 6.85723 10.8072C7.5241 10.9398 8.21533 10.8717 8.84351 10.6115C9.4717 10.3513 10.0086 9.91069 10.3864 9.34534C10.7641 8.77999 10.9657 8.11532 10.9657 7.43539C10.9648 6.52391 10.6023 5.65005 9.95776 5.00555C9.31325 4.36104 8.43939 3.99853 7.52792 3.99756ZM7.52792 9.95646C7.02929 9.95646 6.54187 9.8086 6.12728 9.53158C5.71269 9.25456 5.38956 8.86082 5.19875 8.40016C5.00793 7.93949 4.95801 7.43259 5.05529 6.94355C5.15256 6.45451 5.39267 6.0053 5.74525 5.65272C6.09783 5.30014 6.54704 5.06003 7.03608 4.96275C7.52512 4.86548 8.03202 4.9154 8.49269 5.10622C8.95335 5.29703 9.34709 5.62016 9.62411 6.03475C9.90113 6.44934 10.049 6.93676 10.049 7.43539C10.0483 8.10379 9.78241 8.74461 9.30978 9.21725C8.83714 9.68988 8.19632 9.95573 7.52792 9.95646Z" fill="#3A3A3A"/>
<path d="M11.9878 5.48383C12.2443 5.48383 12.4523 5.27583 12.4523 5.01926C12.4523 4.76268 12.2443 4.55469 11.9878 4.55469C11.7312 4.55469 11.5232 4.76268 11.5232 5.01926C11.5232 5.27583 11.7312 5.48383 11.9878 5.48383Z" fill="#3A3A3A"/>
</svg>
