<svg width="19" height="21" viewBox="0 0 19 21" fill="none" xmlns="http://www.w3.org/2000/svg">
<g id="Frame" clip-path="url(#clip0_235_2701)">
<path id="Vector" fill-rule="evenodd" clip-rule="evenodd" d="M5.46781 19.0204C6.44178 19.1133 7.698 19.1147 9.5 19.1147C11.302 19.1147 12.5582 19.1133 13.5322 19.0204C14.4866 18.9293 15.0292 18.76 15.4375 18.5118C16.0874 18.1169 16.6271 17.5488 17.0022 16.8647C17.238 16.4349 17.3989 15.8638 17.4853 14.8591C17.5737 13.8339 17.575 12.5116 17.575 10.6147C17.575 8.71791 17.5737 7.39557 17.4853 6.37033C17.3989 5.36572 17.238 4.79455 17.0022 4.36475C16.6271 3.68066 16.0874 3.11259 15.4375 2.71763C15.0292 2.46949 14.4866 2.30016 13.5322 2.20911C12.5582 2.11619 11.302 2.11475 9.5 2.11475C7.698 2.11475 6.44178 2.11619 5.46781 2.20911C4.51342 2.30016 3.97081 2.46949 3.5625 2.71763C2.91261 3.11259 2.37295 3.68066 1.99775 4.36475C1.762 4.79455 1.60114 5.36572 1.51464 6.37033C1.42637 7.39557 1.425 8.71791 1.425 10.6147C1.425 12.5116 1.42637 13.8339 1.51464 14.8591C1.60114 15.8638 1.762 16.4349 1.99775 16.8647C2.37295 17.5488 2.91261 18.1169 3.5625 18.5118C3.97081 18.76 4.51342 18.9293 5.46781 19.0204ZM0.763655 3.61475C0 5.00705 0 6.87629 0 10.6147C0 14.3532 0 16.2224 0.763655 17.6147C1.26394 18.5268 1.98349 19.2843 2.85 19.8109C4.17269 20.6147 5.94846 20.6147 9.5 20.6147C13.0516 20.6147 14.8273 20.6147 16.15 19.8109C17.0165 19.2843 17.736 18.5268 18.2364 17.6147C19 16.2224 19 14.3532 19 10.6147C19 6.87629 19 5.00705 18.2364 3.61475C17.736 2.70263 17.0165 1.94521 16.15 1.4186C14.8273 0.614746 13.0516 0.614746 9.5 0.614746C5.94846 0.614746 4.17269 0.614746 2.85 1.4186C1.98349 1.94521 1.26394 2.70263 0.763655 3.61475Z" fill="#3A3A3A"/>
<path id="Vector_2" d="M6.67105 6.10519C6.30402 5.71884 5.70896 5.71884 5.34192 6.10519C4.97489 6.49153 4.97489 7.11793 5.34192 7.50427L8.48757 10.8155L5.43055 14.0334C5.06353 14.4197 5.06353 15.0462 5.43055 15.4325C5.79759 15.8187 6.39266 15.8187 6.75968 15.4325L9.81675 12.2145L12.8736 15.4324C13.2406 15.8187 13.8357 15.8187 14.2028 15.4324C14.5698 15.046 14.5698 14.4197 14.2028 14.0334L11.1458 10.8155L14.2914 7.50432C14.6584 7.11798 14.6584 6.49158 14.2914 6.10524C13.9243 5.7189 13.3294 5.7189 12.9623 6.10524L9.81675 9.41639L6.67105 6.10519Z" fill="#FF7F00"/>
</g>
<defs>
<clipPath id="clip0_235_2701">
<rect width="19" height="21" fill="white"/>
</clipPath>
</defs>
</svg>
