<svg width="58" height="58" viewBox="0 0 58 58" fill="none" xmlns="http://www.w3.org/2000/svg">
<g id="Mask group">
<mask id="mask0_44_750" style="mask-type:alpha" maskUnits="userSpaceOnUse" x="0" y="0" width="58" height="58">
<circle id="Ellipse 35" cx="28.6179" cy="29.3821" r="28.6179" fill="white"/>
</mask>
<g mask="url(#mask0_44_750)">
<circle id="Ellipse 36" cx="28.6404" cy="29.4045" r="28.6404" fill="#F5F5F5"/>
<g id="Group">
<path id="Vector" d="M37.4288 44.7553C35.3951 46.646 32.7974 47.668 30.0659 47.668C29.893 47.668 29.7201 47.6638 29.5451 47.6554C26.6222 47.5169 23.9299 46.2284 21.9579 44.025L18.4895 40.1406L18.4957 40.1343C19.175 40.2036 20.1321 40.2686 21.433 40.2875L23.4955 42.5938C25.0928 44.3796 27.2747 45.4247 29.6439 45.538C32.007 45.6492 34.2794 44.8161 36.0291 43.1877C39.6456 39.8279 39.9071 34.0969 36.6116 30.4098L33.3758 26.7898L34.9381 25.3901L38.1471 28.9828C42.2145 33.5345 41.8934 40.6086 37.4288 44.7553Z" fill="url(#paint0_linear_44_750)"/>
<path id="Vector_2" d="M35.675 36.6363C35.603 38.1997 34.9381 39.6435 33.8019 40.699C32.7336 41.6916 31.3689 42.231 29.9342 42.231C29.8436 42.231 29.753 42.2289 29.6604 42.2247C28.1269 42.1512 26.7107 41.4755 25.6774 40.3171L23.7302 38.1388L21.4248 40.2835L21.431 40.2898C20.1301 40.2709 19.175 40.2059 18.4937 40.1366L23.9628 35.2324L25.276 36.7014L25.2637 36.714L27.2109 38.8901C27.8717 39.6288 28.7753 40.0632 29.7551 40.1094C30.7349 40.1555 31.6756 39.8093 32.4001 39.1356C33.1247 38.462 33.5508 37.5387 33.596 36.5419C33.6393 35.543 33.3017 34.584 32.6409 33.8453L29.4916 30.3198L29.4854 30.3261L29.4628 30.303L31.0313 28.897L34.1786 32.4204C35.2139 33.5788 35.745 35.0771 35.673 36.6405L35.675 36.6363Z" fill="url(#paint1_linear_44_750)"/>
<path id="Vector_3" d="M40.5144 17.5271L35.1235 22.5342L35.0391 22.4377L33.7258 20.9666L33.7382 20.9561L31.7951 18.78C31.1343 18.0392 30.2307 17.6069 29.2488 17.5607C28.267 17.5146 27.3304 17.8608 26.6038 18.5323C25.8772 19.206 25.4532 20.1293 25.4079 21.1282C25.3626 22.1271 25.7022 23.084 26.3609 23.8248L29.5123 27.3482L29.5185 27.3419L29.5411 27.365L27.9726 28.771L24.8274 25.2497C23.7921 24.0913 23.261 22.593 23.333 21.0275C23.403 19.462 24.0679 18.0203 25.2041 16.9647C26.3403 15.9092 27.81 15.3678 29.3435 15.4412C30.8791 15.5126 32.2953 16.1904 33.3286 17.3488L35.2717 19.5249L37.5791 17.3823L35.5084 15.0677C33.9131 13.2818 31.7292 12.2347 29.3621 12.1235C26.9949 12.0122 24.7266 12.8453 22.9749 14.4738C21.2232 16.1022 20.1981 18.3267 20.089 20.74C19.9779 23.1533 20.7971 25.4679 22.3924 27.2517L25.6281 30.8716L25.7022 30.9556L24.1667 32.3826L24.0679 32.2713L20.8568 28.6787C18.8869 26.4794 17.8763 23.6254 18.0121 20.6455C18.148 17.6677 19.4118 14.9208 21.5752 12.9125C23.7365 10.9042 26.54 9.87385 29.4588 10.0123C32.3817 10.1509 35.0741 11.4393 37.044 13.6449L40.5144 17.5271Z" fill="#101010"/>
</g>
</g>
</g>
<defs>
<linearGradient id="paint0_linear_44_750" x1="18.4895" y1="36.5312" x2="40.998" y2="36.5312" gradientUnits="userSpaceOnUse">
<stop stop-color="#F2B807"/>
<stop offset="1" stop-color="#DA810B"/>
</linearGradient>
<linearGradient id="paint1_linear_44_750" x1="18.4957" y1="35.5619" x2="35.6812" y2="35.5619" gradientUnits="userSpaceOnUse">
<stop stop-color="#DA810B"/>
<stop offset="1" stop-color="#F2B807"/>
</linearGradient>
</defs>
</svg>
