<svg width="19" height="19" viewBox="0 0 19 19" fill="none" xmlns="http://www.w3.org/2000/svg">
<g id="Group">
<path id="Vector" fill-rule="evenodd" clip-rule="evenodd" d="M5.12847 0.697977C6.32181 0.432774 7.777 0.34021 9.52304 0.34021C11.269 0.34021 12.7242 0.432774 13.9176 0.697977C15.1197 0.965113 16.1023 1.41748 16.8539 2.16908C17.6055 2.92069 18.0579 3.90336 18.325 5.1054C18.5902 6.29874 18.6828 7.75393 18.6828 9.49997C18.6828 11.246 18.5902 12.7012 18.325 13.8946C18.0579 15.0966 17.6055 16.0793 16.8539 16.8308C16.1023 17.5825 15.1197 18.0348 13.9176 18.302C12.7242 18.5671 11.269 18.6597 9.52304 18.6597C7.777 18.6597 6.32181 18.5671 5.12847 18.302C3.92643 18.0348 2.94376 17.5825 2.19216 16.8308C1.44055 16.0793 0.98822 15.0966 0.721049 13.8946C0.455845 12.7012 0.363281 11.246 0.363281 9.49997C0.363281 7.75393 0.455845 6.29874 0.721049 5.1054C0.988184 3.90336 1.44055 2.92069 2.19216 2.16908C2.94376 1.41748 3.92643 0.965113 5.12847 0.697977ZM2.21133 5.43658C1.98259 6.46576 1.88992 7.78878 1.88992 9.49997C1.88992 11.2112 1.98263 12.5341 2.21133 13.5634C2.43815 14.5839 2.78843 15.2682 3.27165 15.7514C3.75486 16.2346 4.43912 16.5849 5.45965 16.8117C6.48883 17.0405 7.81185 17.1331 9.52304 17.1331C11.2342 17.1331 12.5572 17.0404 13.5865 16.8117C14.607 16.5849 15.2913 16.2346 15.7744 15.7514C16.2577 15.2682 16.608 14.5839 16.8347 13.5634C17.0635 12.5341 17.1562 11.2112 17.1562 9.49997C17.1562 7.78878 17.0635 6.46576 16.8347 5.43658C16.608 4.41605 16.2577 3.73179 15.7744 3.24858C15.2913 2.76536 14.607 2.41507 13.5865 2.18826C12.5572 1.95952 11.2342 1.86685 9.52304 1.86685C7.81185 1.86685 6.48883 1.95956 5.45965 2.18826C4.43912 2.41507 3.75486 2.76536 3.27165 3.24858C2.78843 3.73179 2.43811 4.41605 2.21133 5.43658Z" fill="#D66A00"/>
<path id="Vector_2" fill-rule="evenodd" clip-rule="evenodd" d="M9.60705 5.35441C10.1334 4.80236 11.01 4.77341 11.5728 5.28625L13.652 7.18107C14.224 7.70224 14.2569 8.58627 13.7218 9.14737L9.43902 13.6384C9.17414 13.9161 8.80732 14.0712 8.42648 14.0727L6.47645 14.0799C5.75193 14.0826 5.12581 13.5311 5.07544 12.7893L4.94627 10.8872C4.92001 10.5007 5.0588 10.1238 5.32425 9.84541L9.60705 5.35441ZM10.6245 6.32935L9.98954 6.99523L12.0495 8.85899L12.6779 8.19995L10.6253 6.32935H10.6245ZM11.0767 9.87915L9.01664 8.01536L6.35337 10.8083L6.47985 12.6707L8.42125 12.6635L11.0767 9.87915Z" fill="#D66A00"/>
</g>
</svg>
