<svg width="16" height="19" viewBox="0 0 16 19" fill="none" xmlns="http://www.w3.org/2000/svg">
<g id="Group 260">
<path id="Vector" d="M15.3473 2.79045C14.8871 2.31385 14.2445 2.04013 13.5847 2.04013H3.26854C2.60875 2.04013 1.96614 2.31349 1.506 2.79045C1.06411 3.24843 0.832615 3.84096 0.854441 4.46103C0.8709 4.89719 1.20008 5.24569 1.62264 5.29578L2.12428 16.2732C2.18618 17.6114 3.246 18.6597 4.53731 18.6597H12.3159C13.6073 18.6597 14.6671 17.6114 14.7286 16.2725L15.2303 5.29542C15.6528 5.24533 15.982 4.89683 15.9985 4.4596C16.0206 3.84096 15.7891 3.24808 15.3473 2.79045ZM2.32966 3.58548C2.57547 3.33109 2.91753 3.1851 3.26854 3.1851H13.5847C13.9357 3.1851 14.2778 3.33109 14.5236 3.58548C14.6828 3.75043 14.7884 3.94758 14.832 4.1569H2.02124C2.06525 3.94722 2.1708 3.75043 2.32966 3.58548ZM13.5847 16.2199C13.5514 16.9459 12.994 17.5148 12.3159 17.5148H4.53731C3.85927 17.5148 3.30181 16.9462 3.26818 16.2202L2.7694 5.30187H14.0839L13.5847 16.2199ZM6.12309 7.14133V15.6764C6.12309 15.9927 5.8669 16.2488 5.55061 16.2488C5.23431 16.2488 4.97812 15.9927 4.97812 15.6764V7.14133C4.97812 6.82503 5.23431 6.56885 5.55061 6.56885C5.8669 6.56885 6.12309 6.82503 6.12309 7.14133ZM8.99947 7.14133V15.6764C8.99947 15.9927 8.74328 16.2488 8.42699 16.2488C8.11069 16.2488 7.8545 15.9927 7.8545 15.6764V7.14133C7.8545 6.82503 8.11069 6.56885 8.42699 6.56885C8.74328 6.56885 8.99947 6.82503 8.99947 7.14133ZM11.8751 7.14133V15.6764C11.8751 15.9927 11.6189 16.2488 11.3027 16.2488C10.9864 16.2488 10.7302 15.9927 10.7302 15.6764V7.14133C10.7302 6.82503 10.9864 6.56885 11.3027 6.56885C11.6186 6.56885 11.8751 6.82503 11.8751 7.14133ZM6.48233 0.912695C6.48233 0.596397 6.73851 0.34021 7.05481 0.34021H9.79844C10.1147 0.34021 10.3709 0.596397 10.3709 0.912695C10.3709 1.22899 10.1147 1.48518 9.79844 1.48518H7.05481C6.73851 1.48518 6.48233 1.22899 6.48233 0.912695Z" fill="#D66A00"/>
</g>
</svg>
