<svg width="33" height="33" viewBox="0 0 33 33" fill="none" xmlns="http://www.w3.org/2000/svg">
<mask id="mask0_48_1877" style="mask-type:alpha" maskUnits="userSpaceOnUse" x="0" y="0" width="33" height="33">
<circle cx="16.5" cy="16.5" r="16.5" fill="white"/>
</mask>
<g mask="url(#mask0_48_1877)">
<circle cx="16.5129" cy="16.5129" r="16.5129" fill="#F5F5F5"/>
<path d="M21.58 25.3636C20.4075 26.4537 18.9098 27.0429 17.3349 27.0429C17.2352 27.0429 17.1355 27.0405 17.0346 27.0357C15.3494 26.9558 13.7971 26.2129 12.6601 24.9425L10.6604 22.7029L10.664 22.6993C11.0556 22.7392 11.6075 22.7767 12.3575 22.7876L13.5467 24.1173C14.4676 25.147 15.7256 25.7495 17.0916 25.8149C18.454 25.879 19.7642 25.3986 20.773 24.4597C22.8582 22.5226 23.0089 19.2183 21.1089 17.0925L19.2432 15.0054L20.144 14.1984L21.9942 16.2698C24.3393 18.8941 24.1542 22.9727 21.58 25.3636Z" fill="url(#paint0_linear_48_1877)"/>
<path d="M20.5687 20.6824C20.5272 21.5838 20.1438 22.4162 19.4887 23.0248C18.8728 23.5971 18.0859 23.9081 17.2588 23.9081C17.2065 23.9081 17.1543 23.9069 17.1009 23.9044C16.2168 23.8621 15.4002 23.4725 14.8045 22.8046L13.6818 21.5487L12.3526 22.7853L12.3561 22.7889C11.6061 22.778 11.0554 22.7405 10.6626 22.7006L13.8159 19.873L14.5731 20.7199L14.5659 20.7272L15.6886 21.9819C16.0696 22.4078 16.5906 22.6582 17.1555 22.6848C17.7204 22.7115 18.2628 22.5118 18.6805 22.1234C19.0983 21.7351 19.3439 21.2027 19.3701 20.628C19.395 20.052 19.2003 19.4991 18.8194 19.0732L17.0036 17.0405L17 17.0442L16.987 17.0309L17.8913 16.2202L19.7059 18.2517C20.3029 18.9196 20.6091 19.7834 20.5675 20.6848L20.5687 20.6824Z" fill="url(#paint1_linear_48_1877)"/>
<path d="M23.3589 9.66481L20.2507 12.5517L20.202 12.496L19.4448 11.6479L19.452 11.6418L18.3316 10.3871C17.9507 9.96003 17.4297 9.71079 16.8636 9.68417C16.2975 9.65755 15.7575 9.85719 15.3386 10.2444C14.9196 10.6328 14.6751 11.1651 14.649 11.741C14.6229 12.317 14.8187 12.8687 15.1985 13.2958L17.0155 15.3273L17.0191 15.3236L17.0321 15.3369L16.1278 16.1476L14.3144 14.1173C13.7174 13.4495 13.4112 12.5856 13.4528 11.683C13.4931 10.7804 13.8764 9.94914 14.5315 9.34055C15.1867 8.73196 16.034 8.4198 16.9182 8.46215C17.8035 8.50328 18.62 8.89409 19.2158 9.56197L20.3361 10.8167L21.6665 9.58133L20.4726 8.24678C19.5528 7.21713 18.2937 6.61338 16.9289 6.54926C15.5641 6.48513 14.2562 6.96547 13.2463 7.90437C12.2363 8.84327 11.6453 10.1258 11.5824 11.5172C11.5183 12.9086 11.9906 14.2432 12.9104 15.2716L14.776 17.3587L14.8187 17.4071L13.9334 18.2299L13.8764 18.1657L12.0251 16.0944C10.8893 14.8264 10.3066 13.1809 10.3849 11.4628C10.4632 9.74588 11.1919 8.16209 12.4392 7.00419C13.6854 5.84629 15.3018 5.25222 16.9846 5.33207C18.6699 5.41193 20.2222 6.15482 21.3579 7.42645L23.3589 9.66481Z" fill="#101010"/>
</g>
<defs>
<linearGradient id="paint0_linear_48_1877" x1="10.6604" y1="20.6219" x2="23.6379" y2="20.6219" gradientUnits="userSpaceOnUse">
<stop stop-color="#F2B807"/>
<stop offset="1" stop-color="#DA810B"/>
</linearGradient>
<linearGradient id="paint1_linear_48_1877" x1="10.6638" y1="20.0629" x2="20.5723" y2="20.0629" gradientUnits="userSpaceOnUse">
<stop stop-color="#DA810B"/>
<stop offset="1" stop-color="#F2B807"/>
</linearGradient>
</defs>
</svg>
