<svg width="77" height="81" viewBox="0 0 77 81" fill="none" xmlns="http://www.w3.org/2000/svg">
<g id="Group 263">
<g id="Group 254">
<path id="Vector" d="M69.3567 81H23.0709C19.1711 81 15.9995 77.8284 15.9995 73.9286V63.6429C15.9995 62.578 16.8633 61.7143 17.9281 61.7143C18.9929 61.7143 19.8567 62.578 19.8567 63.6429V73.9286C19.8567 75.7016 21.2979 77.1429 23.0709 77.1429H69.3567C71.1297 77.1429 72.5709 75.7016 72.5709 73.9286V15.5841L60.8439 3.85714H23.0709C21.2979 3.85714 19.8567 5.29843 19.8567 7.07143V17.3571C19.8567 18.422 18.9929 19.2857 17.9281 19.2857C16.8633 19.2857 15.9995 18.422 15.9995 17.3571V7.07143C15.9995 3.1716 19.1711 0 23.0709 0H61.6424C62.1533 0 62.6442 0.2034 63.006 0.564943L75.8631 13.4221C76.2247 13.7836 76.4281 14.2745 76.4281 14.7857V73.9286C76.4281 77.8284 73.2565 81 69.3567 81Z" fill="white"/>
<path id="Vector_2" d="M74.5003 16.7143H61.6432C60.5783 16.7143 59.7146 15.8505 59.7146 14.7857V1.92857C59.7146 0.863743 60.5783 0 61.6432 0C62.708 0 63.5717 0.863743 63.5717 1.92857V12.8571H74.5003C75.5651 12.8571 76.4289 13.7209 76.4289 14.7857C76.4289 15.8505 75.5651 16.7143 74.5003 16.7143Z" fill="white"/>
<path id="Vector_3" d="M33.3578 16.7142H28.2149C27.1501 16.7142 26.2864 15.8505 26.2864 14.7856C26.2864 13.7208 27.1501 12.8571 28.2149 12.8571H33.3578C34.4226 12.8571 35.2864 13.7208 35.2864 14.7856C35.2864 15.8505 34.4226 16.7142 33.3578 16.7142Z" fill="white"/>
<path id="Vector_4" d="M64.2141 26.9998H59.0713C58.0064 26.9998 57.1427 26.1361 57.1427 25.0713C57.1427 24.0064 58.0064 23.1427 59.0713 23.1427H64.2141C65.279 23.1427 66.1427 24.0064 66.1427 25.0713C66.1427 26.1361 65.279 26.9998 64.2141 26.9998Z" fill="white"/>
<path id="Vector_5" d="M51.358 16.7142H41.0722C40.0074 16.7142 39.1437 15.8505 39.1437 14.7856C39.1437 13.7208 40.0074 12.8571 41.0722 12.8571H51.358C52.4228 12.8571 53.2865 13.7208 53.2865 14.7856C53.2865 15.8505 52.4228 16.7142 51.358 16.7142Z" fill="white"/>
<path id="Vector_6" d="M64.2141 68.1425H59.0713C58.0064 68.1425 57.1427 67.2788 57.1427 66.214C57.1427 65.1491 58.0064 64.2854 59.0713 64.2854H64.2141C65.279 64.2854 66.1427 65.1491 66.1427 66.214C66.1427 67.2788 65.279 68.1425 64.2141 68.1425Z" fill="white"/>
<path id="Vector_7" d="M64.2151 57.8571H41.0722C40.0074 57.8571 39.1437 56.9934 39.1437 55.9286C39.1437 54.8637 40.0074 54 41.0722 54H64.2151C65.2799 54 66.1437 54.8637 66.1437 55.9286C66.1437 56.9934 65.2799 57.8571 64.2151 57.8571Z" fill="white"/>
<path id="Vector_8" d="M51.3572 26.9998H35.1577C34.0929 26.9998 33.2291 26.1361 33.2291 25.0713C33.2291 24.0064 34.0929 23.1427 35.1577 23.1427H51.3572C52.422 23.1427 53.2858 24.0064 53.2858 25.0713C53.2858 26.1361 52.422 26.9998 51.3572 26.9998Z" fill="white"/>
<path id="Vector_9" d="M51.3578 68.1425H28.2149C27.1501 68.1425 26.2864 67.2788 26.2864 66.214C26.2864 65.1491 27.1501 64.2854 28.2149 64.2854H51.3578C52.4226 64.2854 53.2864 65.1491 53.2864 66.214C53.2864 67.2788 52.4226 68.1425 51.3578 68.1425Z" fill="white"/>
<path id="Vector_10" d="M64.2143 37.2861H40.5052C39.4404 37.2861 38.5767 36.4224 38.5767 35.3575C38.5767 34.2927 39.4404 33.429 40.5052 33.429H64.2143C65.2792 33.429 66.1429 34.2927 66.1429 35.3575C66.1429 36.4224 65.2792 37.2861 64.2143 37.2861Z" fill="white"/>
<path id="Vector_11" d="M64.2143 47.5716H40.5052C39.4404 47.5716 38.5767 46.7079 38.5767 45.643C38.5767 44.5782 39.4404 43.7145 40.5052 43.7145H64.2143C65.2792 43.7145 66.1429 44.5782 66.1429 45.643C66.1429 46.7079 65.2792 47.5716 64.2143 47.5716Z" fill="white"/>
</g>
<g id="Group 253">
<path id="Vector_12" d="M22.8995 42.4283H12.9579C11.893 42.4283 11.0293 41.5646 11.0293 40.4997C11.0293 39.4349 11.893 38.5712 12.9579 38.5712H22.8995C23.9644 38.5712 24.8281 39.4349 24.8281 40.4997C24.8281 41.5646 23.9644 42.4283 22.8995 42.4283Z" fill="#284C7E"/>
<path id="Vector_13" d="M17.928 47.3991C16.8631 47.3991 15.9994 46.5354 15.9994 45.4706V35.5289C15.9994 34.4641 16.8631 33.6003 17.928 33.6003C18.9928 33.6003 19.8565 34.4641 19.8565 35.5289V45.4706C19.8565 46.5354 18.9928 47.3991 17.928 47.3991Z" fill="#284C7E"/>
<path id="Vector_14" d="M17.9286 57.857C8.35718 57.857 0.571411 50.0712 0.571411 40.4998C0.571411 30.9285 8.35718 23.1427 17.9286 23.1427C27.4999 23.1427 35.2857 30.9285 35.2857 40.4998C35.2857 50.0712 27.4999 57.857 17.9286 57.857ZM17.9286 26.9998C10.4843 26.9998 4.42855 33.0556 4.42855 40.4998C4.42855 47.9441 10.4843 53.9998 17.9286 53.9998C25.3728 53.9998 31.4286 47.9441 31.4286 40.4998C31.4286 33.0556 25.3728 26.9998 17.9286 26.9998Z" fill="#284C7E"/>
</g>
</g>
</svg>
