<svg width="68" height="81" viewBox="0 0 68 81" fill="none" xmlns="http://www.w3.org/2000/svg">
<g id="Group 401">
<path id="Vector" d="M4.05 0C2.97587 0 1.94574 0.426695 1.18622 1.18622C0.426695 1.94574 0 2.97587 0 4.05V76.95C0 78.0241 0.426695 79.0543 1.18622 79.8138C1.94574 80.5733 2.97587 81 4.05 81H63.45C64.5241 81 65.5543 80.5733 66.3138 79.8138C67.0733 79.0543 67.5 78.0241 67.5 76.95V4.05C67.5 2.97587 67.0733 1.94574 66.3138 1.18622C65.5543 0.426695 64.5241 0 63.45 0L4.05 0ZM64.8 76.95C64.8 77.308 64.6578 77.6514 64.4046 77.9046C64.1514 78.1578 63.808 78.3 63.45 78.3H4.05C3.69196 78.3 3.34858 78.1578 3.09541 77.9046C2.84223 77.6514 2.7 77.308 2.7 76.95V29.7H32.4V36.45H6.75C6.39196 36.45 6.04858 36.5922 5.79541 36.8454C5.54223 37.0986 5.4 37.442 5.4 37.8C5.4 38.158 5.54223 38.5014 5.79541 38.7546C6.04858 39.0078 6.39196 39.15 6.75 39.15H32.4V45.9H6.75C6.39196 45.9 6.04858 46.0422 5.79541 46.2954C5.54223 46.5486 5.4 46.892 5.4 47.25C5.4 47.608 5.54223 47.9514 5.79541 48.2046C6.04858 48.4578 6.39196 48.6 6.75 48.6H32.4V55.35H6.75C6.39196 55.35 6.04858 55.4922 5.79541 55.7454C5.54223 55.9986 5.4 56.342 5.4 56.7C5.4 57.058 5.54223 57.4014 5.79541 57.6546C6.04858 57.9078 6.39196 58.05 6.75 58.05H32.4V64.8H6.75C6.39196 64.8 6.04858 64.9422 5.79541 65.1954C5.54223 65.4486 5.4 65.792 5.4 66.15C5.4 66.508 5.54223 66.8514 5.79541 67.1046C6.04858 67.3578 6.39196 67.5 6.75 67.5H32.4V74.25C32.4 74.608 32.5422 74.9514 32.7954 75.2046C33.0486 75.4578 33.392 75.6 33.75 75.6C34.108 75.6 34.4514 75.4578 34.7046 75.2046C34.9578 74.9514 35.1 74.608 35.1 74.25V67.5H60.75C61.108 67.5 61.4514 67.3578 61.7046 67.1046C61.9578 66.8514 62.1 66.508 62.1 66.15C62.1 65.792 61.9578 65.4486 61.7046 65.1954C61.4514 64.9422 61.108 64.8 60.75 64.8H35.1V58.05H60.75C61.108 58.05 61.4514 57.9078 61.7046 57.6546C61.9578 57.4014 62.1 57.058 62.1 56.7C62.1 56.342 61.9578 55.9986 61.7046 55.7454C61.4514 55.4922 61.108 55.35 60.75 55.35H35.1V48.6H60.75C61.108 48.6 61.4514 48.4578 61.7046 48.2046C61.9578 47.9514 62.1 47.608 62.1 47.25C62.1 46.892 61.9578 46.5486 61.7046 46.2954C61.4514 46.0422 61.108 45.9 60.75 45.9H35.1V39.15H60.75C61.108 39.15 61.4514 39.0078 61.7046 38.7546C61.9578 38.5014 62.1 38.158 62.1 37.8C62.1 37.442 61.9578 37.0986 61.7046 36.8454C61.4514 36.5922 61.108 36.45 60.75 36.45H35.1V29.7H64.8V76.95ZM64.8 27H2.7V18.9H64.8V27ZM64.8 4.05V16.2H2.7V4.05C2.7 3.69196 2.84223 3.34858 3.09541 3.09541C3.34858 2.84223 3.69196 2.7 4.05 2.7H63.45C63.808 2.7 64.1514 2.84223 64.4046 3.09541C64.6578 3.34858 64.8 3.69196 64.8 4.05Z" fill="#3A3A3A"/>
<path id="Vector_2" d="M6.75002 24.3H9.45002C9.80807 24.3 10.1514 24.1577 10.4046 23.9046C10.6578 23.6514 10.8 23.308 10.8 22.95C10.8 22.5919 10.6578 22.2486 10.4046 21.9954C10.1514 21.7422 9.80807 21.6 9.45002 21.6H6.75002C6.39198 21.6 6.0486 21.7422 5.79543 21.9954C5.54226 22.2486 5.40002 22.5919 5.40002 22.95C5.40002 23.308 5.54226 23.6514 5.79543 23.9046C6.0486 24.1577 6.39198 24.3 6.75002 24.3Z" fill="#FF7F00"/>
<path id="Vector_3" d="M14.85 24.3H22.95C23.308 24.3 23.6514 24.1577 23.9046 23.9046C24.1578 23.6514 24.3 23.308 24.3 22.95C24.3 22.5919 24.1578 22.2486 23.9046 21.9954C23.6514 21.7422 23.308 21.6 22.95 21.6H14.85C14.492 21.6 14.1486 21.7422 13.8954 21.9954C13.6422 22.2486 13.5 22.5919 13.5 22.95C13.5 23.308 13.6422 23.6514 13.8954 23.9046C14.1486 24.1577 14.492 24.3 14.85 24.3Z" fill="#FF7F00"/>
<path id="Vector_4" d="M58.05 5.40002C57.249 5.40002 56.466 5.63755 55.7999 6.08257C55.1339 6.52759 54.6148 7.16012 54.3083 7.90016C54.0018 8.6402 53.9216 9.45452 54.0778 10.2401C54.2341 11.0258 54.6198 11.7474 55.1862 12.3138C55.7526 12.8802 56.4743 13.2659 57.2599 13.4222C58.0455 13.5785 58.8598 13.4983 59.5999 13.1917C60.3399 12.8852 60.9724 12.3661 61.4175 11.7001C61.8625 11.0341 62.1 10.251 62.1 9.45002C62.1 8.3759 61.6733 7.34576 60.9138 6.58624C60.1543 5.82672 59.1241 5.40002 58.05 5.40002ZM58.05 10.8C57.783 10.8 57.522 10.7208 57.3 10.5725C57.078 10.4242 56.9049 10.2133 56.8028 9.96665C56.7006 9.71997 56.6739 9.44853 56.7259 9.18665C56.778 8.92478 56.9066 8.68423 57.0954 8.49543C57.2842 8.30663 57.5248 8.17805 57.7866 8.12596C58.0485 8.07387 58.3199 8.10061 58.5666 8.20279C58.8133 8.30497 59.0241 8.478 59.1725 8.7C59.3208 8.92201 59.4 9.18302 59.4 9.45002C59.4 9.80807 59.2578 10.1514 59.0046 10.4046C58.7514 10.6578 58.408 10.8 58.05 10.8Z" fill="#FF7F00"/>
</g>
</svg>
