<svg width="89" height="87" viewBox="0 0 89 87" fill="none" xmlns="http://www.w3.org/2000/svg">
<g id="Group 226">
<path id="Vector" d="M78.3553 10.4763L43.9608 0.300543C39.595 -1.06563 34.965 2.41136 35.0311 6.97527V22.2674C35.0311 23.5105 36.04 24.5193 37.283 24.5193C38.5261 24.5193 39.535 23.5105 39.535 22.2674V6.97527C39.5079 5.36289 41.1473 4.14084 42.6847 4.62125L77.0792 14.788C81.2137 16.0311 84.0542 19.8293 84.0722 24.147V72.7378C84.0662 78.1244 79.7004 82.4901 74.3138 82.4961H46.54V44.5766C46.531 36.7038 40.1505 30.3233 32.2777 30.3143H14.2622C6.38949 30.3233 0.00900774 36.7038 0 44.5766V72.7378C0.00900774 80.6105 6.38949 86.991 14.2622 87H74.3138C82.1866 86.991 88.5671 80.6105 88.5761 72.7378V24.147C88.546 17.8356 84.3965 12.2898 78.3553 10.4763ZM42.0361 82.4961H33.2025V71.921C32.8692 58.8208 13.6677 58.8238 13.3375 71.921V74.7585C13.3525 77.704 17.8263 77.704 17.8413 74.7585V71.921C17.9614 64.7869 28.5785 64.7869 28.6986 71.921V82.4961H14.2622C8.87562 82.4901 4.50987 78.1244 4.50387 72.7378V44.5766C4.50987 39.1899 8.87562 34.8242 14.2622 34.8182H32.2777C37.6643 34.8242 42.0301 39.1899 42.0361 44.5766V82.4961Z" fill="#3A3A3A"/>
<g id="Group 225">
<path id="Vector_2" d="M13.9405 40.8506H12.1211C9.17579 40.8626 9.17579 45.3421 12.1211 45.3541H13.9405C16.8858 45.3391 16.8858 40.8626 13.9405 40.8506Z" fill="#FF7F00"/>
<path id="Vector_3" d="M24.1711 40.8514C22.3907 40.7523 20.205 40.7703 20.1179 43.1031C20.205 45.4359 22.3877 45.4539 24.1711 45.3549C27.1163 45.3399 27.1163 40.8634 24.1711 40.8514Z" fill="#FF7F00"/>
<path id="Vector_4" d="M34.4183 40.8506H32.5989C29.6536 40.8626 29.6536 45.3421 32.5989 45.3541H34.4183C37.3636 45.3391 37.3636 40.8626 34.4183 40.8506Z" fill="#FF7F00"/>
<path id="Vector_5" d="M13.9405 51.4502H12.1211C9.17579 51.4622 9.17579 55.9417 12.1211 55.9537H13.9405C16.8858 55.9387 16.8858 51.4622 13.9405 51.4502Z" fill="#FF7F00"/>
<path id="Vector_6" d="M24.1711 51.4504C22.3907 51.3513 20.205 51.3693 20.1179 53.7021C20.205 56.0349 22.3907 56.0529 24.1711 55.9539C27.1163 55.9389 27.1163 51.4624 24.1711 51.4504Z" fill="#FF7F00"/>
<path id="Vector_7" d="M34.4183 51.4502H32.5989C29.6536 51.4622 29.6536 55.9417 32.5989 55.9537H34.4183C37.3636 55.9387 37.3636 51.4622 34.4183 51.4502Z" fill="#FF7F00"/>
<path id="Vector_8" d="M55.9775 29.6928C58.9228 29.6808 58.9228 25.2013 55.9775 25.1893H54.1581C51.2128 25.2013 51.2128 29.6808 54.1581 29.6928H55.9775Z" fill="#FF7F00"/>
<path id="Vector_9" d="M68.4592 27.4383C68.3721 25.1055 66.1864 25.0875 64.406 25.1866C61.4608 25.1986 61.4608 29.6781 64.406 29.6901C66.1864 29.7892 68.3721 29.7711 68.4592 27.4383Z" fill="#FF7F00"/>
<path id="Vector_10" d="M76.4566 29.6928C79.4019 29.6808 79.4019 25.2013 76.4566 25.1893H74.6372C71.6919 25.2013 71.6919 29.6808 74.6372 29.6928H76.4566Z" fill="#FF7F00"/>
<path id="Vector_11" d="M54.1581 43.6285H55.9775C58.9228 43.6165 58.9228 39.137 55.9775 39.125H54.1581C51.2128 39.137 51.2128 43.6135 54.1581 43.6285Z" fill="#FF7F00"/>
<path id="Vector_12" d="M64.406 43.6284C66.1864 43.7275 68.3721 43.7095 68.4592 41.3767C68.3721 39.0439 66.1864 39.0259 64.406 39.1249C61.4608 39.137 61.4608 43.6134 64.406 43.6284Z" fill="#FF7F00"/>
<path id="Vector_13" d="M74.6372 43.6285H76.4566C79.4019 43.6165 79.4019 39.137 76.4566 39.125H74.6372C71.6919 39.137 71.6919 43.6135 74.6372 43.6285Z" fill="#FF7F00"/>
<path id="Vector_14" d="M54.1581 57.575H55.9775C58.9228 57.563 58.9228 53.0835 55.9775 53.0715H54.1581C51.2128 53.0835 51.2128 57.56 54.1581 57.575Z" fill="#FF7F00"/>
<path id="Vector_15" d="M64.406 57.5752C66.1864 57.6743 68.3721 57.6563 68.4592 55.3235C68.3721 52.9907 66.1894 52.9726 64.406 53.0717C61.4608 53.0837 61.4608 57.5602 64.406 57.5752Z" fill="#FF7F00"/>
<path id="Vector_16" d="M74.6372 57.575H76.4566C79.4019 57.563 79.4019 53.0835 76.4566 53.0715H74.6372C71.6919 53.0835 71.6919 57.56 74.6372 57.575Z" fill="#FF7F00"/>
<path id="Vector_17" d="M54.1581 71.5283H55.9775C58.9228 71.5163 58.9228 67.0368 55.9775 67.0248H54.1581C51.2128 67.0368 51.2128 71.5133 54.1581 71.5283Z" fill="#FF7F00"/>
<path id="Vector_18" d="M64.406 71.5283C66.1864 71.6274 68.3721 71.6094 68.4592 69.2766C68.3721 66.9438 66.1864 66.9258 64.406 67.0248C61.4608 67.0369 61.4608 71.5133 64.406 71.5283Z" fill="#FF7F00"/>
<path id="Vector_19" d="M74.6372 71.5283H76.4566C79.4019 71.5163 79.4019 67.0368 76.4566 67.0248H74.6372C71.6919 67.0368 71.6919 71.5133 74.6372 71.5283Z" fill="#FF7F00"/>
</g>
</g>
</svg>
