<svg width="87" height="87" viewBox="0 0 87 87" fill="none" xmlns="http://www.w3.org/2000/svg">
<path d="M61.4219 48.9228C59.3629 47.5308 57.1589 46.3998 54.8099 45.5298C59.4209 42.0788 62.4079 36.5688 62.4079 30.4208C62.4079 20.0098 53.9109 11.5128 43.4999 11.5128C33.0889 11.5128 24.5919 20.0098 24.5919 30.4208C24.5919 36.5978 27.5789 42.1078 32.2189 45.5298C23.1709 48.9808 16.0369 56.3758 13.1079 65.7718C14.4999 67.6858 16.0949 69.4838 17.8349 71.0788C19.8649 58.5798 30.6239 49.3288 43.4999 49.3288H43.6159C47.7919 49.3288 51.7069 50.2858 55.2159 52.0258C57.0719 52.9538 58.8119 54.0848 60.3779 55.4188C62.2919 54.4038 64.4669 53.8238 66.7869 53.8238C66.9029 53.8238 67.0189 53.8238 67.1349 53.8528C65.4529 51.9968 63.5389 50.3438 61.4219 48.9228ZM43.4999 43.4998C36.2789 43.4998 30.4209 37.6418 30.4209 30.4208C30.4209 23.1998 36.2789 17.3128 43.4999 17.3128C50.7209 17.3128 56.5789 23.1998 56.5789 30.4208C56.5789 37.6418 50.7209 43.4998 43.4999 43.4998Z" fill="#284C7E"/>
<path d="M43.5 0C19.517 0 0 19.517 0 43.5C0 67.483 19.517 87 43.5 87C48.488 87 53.273 86.159 57.739 84.593C60.407 83.694 62.93 82.505 65.308 81.113C62.64 80.852 60.233 79.808 58.261 78.213C56.318 79.025 54.288 79.692 52.171 80.185C49.387 80.852 46.487 81.2 43.5 81.2C22.707 81.2 5.8 64.293 5.8 43.5C5.8 22.707 22.707 5.8 43.5 5.8C64.293 5.8 81.2 22.707 81.2 43.5C81.2 46.893 80.736 50.17 79.895 53.302C79.344 55.39 78.619 57.391 77.72 59.305C79.257 61.335 80.243 63.8 80.417 66.468C81.896 64.119 83.143 61.625 84.158 58.986C85.985 54.172 87 48.952 87 43.5C87 19.517 67.483 0 43.5 0Z" fill="white"/>
<path d="M73.4572 64.6115H69.6872V60.8415C69.6872 59.2407 68.388 57.9415 66.7872 57.9415C65.1864 57.9415 63.8872 59.2407 63.8872 60.8415V64.6115H60.1172C58.5164 64.6115 57.2172 65.9107 57.2172 67.5115C57.2172 69.1123 58.5164 70.4115 60.1172 70.4115H63.8872V74.1815C63.8872 75.7823 65.1864 77.0815 66.7872 77.0815C68.388 77.0815 69.6872 75.7823 69.6872 74.1815V70.4115H73.4572C75.058 70.4115 76.3572 69.1123 76.3572 67.5115C76.3572 65.9107 75.058 64.6115 73.4572 64.6115Z" fill="#284C7E"/>
<path d="M84.1567 58.9863C83.0837 56.8113 81.6337 54.8973 79.8937 53.3023C76.4427 50.1123 71.8607 48.1693 66.7857 48.1693C64.9297 48.1693 63.1317 48.4303 61.4207 48.9233C59.1587 49.5613 57.0417 50.6343 55.2147 52.0263C50.4877 55.5353 47.4427 61.1613 47.4427 67.5123C47.4427 72.3553 49.2117 76.7923 52.1697 80.1853C53.7067 81.9833 55.5917 83.4913 57.7377 84.5933C60.4347 86.0433 63.5087 86.8553 66.7857 86.8553C77.4867 86.8553 86.1287 78.2133 86.1287 67.5123C86.1287 64.4673 85.4327 61.5673 84.1567 58.9863ZM66.7857 81.2003C66.2927 81.2003 65.7997 81.1713 65.3067 81.1133C62.6387 80.8523 60.2317 79.8083 58.2597 78.2133C55.1277 75.7193 53.0977 71.8623 53.0977 67.5123C53.0977 62.2633 56.0557 57.6813 60.3767 55.4193C62.2907 54.4043 64.4657 53.8243 66.7857 53.8243C66.9017 53.8243 67.0177 53.8243 67.1337 53.8533C71.4837 53.9403 75.3117 56.0573 77.7187 59.3053C79.2557 61.3353 80.2417 63.8003 80.4157 66.4683C80.4737 66.8163 80.4737 67.1643 80.4737 67.5123C80.4737 75.0813 74.3547 81.2003 66.7857 81.2003Z" fill="white"/>
</svg>
