<svg width="19" height="21" viewBox="0 0 19 21" fill="none" xmlns="http://www.w3.org/2000/svg">
<g id="Group 490">
<g id="Group 254">
<path id="Vector" d="M17.1774 20.1525H5.66169C4.69143 20.1525 3.90234 19.3635 3.90234 18.3932V15.8341C3.90234 15.5692 4.11724 15.3543 4.38217 15.3543C4.64709 15.3543 4.86199 15.5692 4.86199 15.8341V18.3932C4.86199 18.8343 5.22058 19.1929 5.66169 19.1929H17.1774C17.6185 19.1929 17.9771 18.8343 17.9771 18.3932V3.87729L15.0595 0.959645H5.66169C5.22058 0.959645 4.86199 1.31823 4.86199 1.75935V4.3184C4.86199 4.58333 4.64709 4.79822 4.38217 4.79822C4.11724 4.79822 3.90234 4.58333 3.90234 4.3184V1.75935C3.90234 0.789084 4.69143 0 5.66169 0H15.2581C15.3853 0 15.5074 0.0506053 15.5974 0.140556L18.7962 3.33937C18.8862 3.42932 18.9368 3.55145 18.9368 3.67864V18.3932C18.9368 19.3635 18.1477 20.1525 17.1774 20.1525Z" fill="#3A3A3A"/>
<path id="Vector_2" d="M18.4579 4.15846H15.2591C14.9942 4.15846 14.7793 3.94356 14.7793 3.67864V0.479822C14.7793 0.214896 14.9942 0 15.2591 0C15.524 0 15.7389 0.214896 15.7389 0.479822V3.19882H18.4579C18.7229 3.19882 18.9378 3.41371 18.9378 3.67864C18.9378 3.94356 18.7229 4.15846 18.4579 4.15846Z" fill="#3A3A3A"/>
<path id="Vector_3" d="M8.22224 4.1585H6.94271C6.67779 4.1585 6.46289 3.9436 6.46289 3.67867C6.46289 3.41375 6.67779 3.19885 6.94271 3.19885H8.22224C8.48717 3.19885 8.70206 3.41375 8.70206 3.67867C8.70206 3.9436 8.48717 4.1585 8.22224 4.1585Z" fill="#3A3A3A"/>
<path id="Vector_4" d="M15.898 6.71746H14.6185C14.3536 6.71746 14.1387 6.50256 14.1387 6.23763C14.1387 5.97271 14.3536 5.75781 14.6185 5.75781H15.898C16.1629 5.75781 16.3778 5.97271 16.3778 6.23763C16.3778 6.50256 16.1629 6.71746 15.898 6.71746Z" fill="#3A3A3A"/>
<path id="Vector_5" d="M12.699 4.1585H10.14C9.87505 4.1585 9.66016 3.9436 9.66016 3.67867C9.66016 3.41375 9.87505 3.19885 10.14 3.19885H12.699C12.964 3.19885 13.1789 3.41375 13.1789 3.67867C13.1789 3.9436 12.964 4.1585 12.699 4.1585Z" fill="#3A3A3A"/>
<path id="Vector_6" d="M15.898 16.9537H14.6185C14.3536 16.9537 14.1387 16.7388 14.1387 16.4738C14.1387 16.2089 14.3536 15.994 14.6185 15.994H15.898C16.1629 15.994 16.3778 16.2089 16.3778 16.4738C16.3778 16.7388 16.1629 16.9537 15.898 16.9537Z" fill="#3A3A3A"/>
<path id="Vector_7" d="M15.8978 14.3947H10.14C9.87505 14.3947 9.66016 14.1798 9.66016 13.9149C9.66016 13.65 9.87505 13.4351 10.14 13.4351H15.8978C16.1628 13.4351 16.3777 13.65 16.3777 13.9149C16.3777 14.1798 16.1628 14.3947 15.8978 14.3947Z" fill="#3A3A3A"/>
<path id="Vector_8" d="M12.6997 6.71746H8.66928C8.40435 6.71746 8.18945 6.50256 8.18945 6.23763C8.18945 5.97271 8.40435 5.75781 8.66928 5.75781H12.6997C12.9646 5.75781 13.1795 5.97271 13.1795 6.23763C13.1795 6.50256 12.9646 6.71746 12.6997 6.71746Z" fill="#3A3A3A"/>
<path id="Vector_9" d="M12.7006 16.9537H6.94271C6.67779 16.9537 6.46289 16.7388 6.46289 16.4738C6.46289 16.2089 6.67779 15.994 6.94271 15.994H12.7006C12.9655 15.994 13.1804 16.2089 13.1804 16.4738C13.1804 16.7388 12.9655 16.9537 12.7006 16.9537Z" fill="#3A3A3A"/>
<path id="Vector_10" d="M15.8981 9.27666H9.99935C9.73443 9.27666 9.51953 9.06177 9.51953 8.79684C9.51953 8.53191 9.73443 8.31702 9.99935 8.31702H15.8981C16.163 8.31702 16.3779 8.53191 16.3779 8.79684C16.3779 9.06177 16.163 9.27666 15.8981 9.27666Z" fill="#3A3A3A"/>
<path id="Vector_11" d="M15.8981 11.8356H9.99935C9.73443 11.8356 9.51953 11.6207 9.51953 11.3558C9.51953 11.0909 9.73443 10.876 9.99935 10.876H15.8981C16.163 10.876 16.3779 11.0909 16.3779 11.3558C16.3779 11.6207 16.163 11.8356 15.8981 11.8356Z" fill="#3A3A3A"/>
</g>
<g id="Group 253">
<path id="Vector_12" d="M5.61734 10.5561H3.14388C2.87896 10.5561 2.66406 10.3412 2.66406 10.0763C2.66406 9.81133 2.87896 9.59644 3.14388 9.59644H5.61734C5.88226 9.59644 6.09716 9.81133 6.09716 10.0763C6.09716 10.3412 5.88226 10.5561 5.61734 10.5561Z" fill="#FF7F00"/>
<path id="Vector_13" d="M4.38217 11.7927C4.11724 11.7927 3.90234 11.5778 3.90234 11.3129V8.83944C3.90234 8.57452 4.11724 8.35962 4.38217 8.35962C4.64709 8.35962 4.86199 8.57452 4.86199 8.83944V11.3129C4.86199 11.5778 4.64709 11.7927 4.38217 11.7927Z" fill="#FF7F00"/>
<path id="Vector_14" d="M4.3809 14.3946C1.99958 14.3946 0.0625 12.4575 0.0625 10.0762C0.0625 7.69489 1.99958 5.75781 4.3809 5.75781C6.76223 5.75781 8.6993 7.69489 8.6993 10.0762C8.6993 12.4575 6.76223 14.3946 4.3809 14.3946ZM4.3809 6.71746C2.52879 6.71746 1.02214 8.2241 1.02214 10.0762C1.02214 11.9283 2.52879 13.435 4.3809 13.435C6.23302 13.435 7.73966 11.9283 7.73966 10.0762C7.73966 8.2241 6.23302 6.71746 4.3809 6.71746Z" fill="#FF7F00"/>
</g>
</g>
</svg>
