<svg width="21" height="20" viewBox="0 0 21 20" fill="none" xmlns="http://www.w3.org/2000/svg">
<g id="Group 258">
<path id="Vector" d="M18.0127 2.40834L10.1059 0.0690903C9.1023 -0.244973 8.03794 0.554335 8.05312 1.60351V5.11894C8.05312 5.40471 8.28505 5.63663 8.57081 5.63663C8.85657 5.63663 9.08849 5.40471 9.08849 5.11894V1.60351C9.08228 1.23285 9.45916 0.951918 9.81256 1.06236L17.7194 3.39954C18.6698 3.6853 19.3228 4.55846 19.3269 5.55104V16.7213C19.3256 17.9596 18.3219 18.9632 17.0836 18.9646H10.6988V10.2475C10.6968 8.43766 9.22999 6.97088 7.42017 6.96881H3.27868C1.46885 6.97088 0.00207074 8.43766 0 10.2475V16.7213C0.00207074 18.5312 1.46885 19.9979 3.27868 20H17.0836C18.8935 19.9979 20.3602 18.5312 20.3623 16.7213V5.55104C20.3554 4.10014 19.4015 2.82525 18.0127 2.40834ZM9.66347 18.9646H7.63276V16.5336C7.55614 13.522 3.14201 13.5227 3.06608 16.5336V17.1859C3.06953 17.863 4.098 17.863 4.10145 17.1859V16.5336C4.12906 14.8935 6.56978 14.8935 6.59739 16.5336V18.9646H3.27868C2.04037 18.9632 1.03675 17.9596 1.03537 16.7213V10.2475C1.03675 9.00918 2.04037 8.00556 3.27868 8.00418H7.42017C8.65847 8.00556 9.66209 9.00918 9.66347 10.2475V18.9646Z" fill="#3A3A3A"/>
<g id="Group 225">
<path id="Vector_2" d="M3.20446 9.39087H2.78617C2.10904 9.39363 2.10904 10.4235 2.78617 10.4262H3.20446C3.88159 10.4228 3.88159 9.39363 3.20446 9.39087Z" fill="#FF7F00"/>
<path id="Vector_3" d="M5.55635 9.39096C5.14703 9.36818 4.64453 9.37233 4.62451 9.90865C4.64453 10.445 5.14634 10.4491 5.55635 10.4263C6.23348 10.4229 6.23348 9.39372 5.55635 9.39096Z" fill="#FF7F00"/>
<path id="Vector_4" d="M7.91149 9.39087H7.4932C6.81607 9.39363 6.81607 10.4235 7.4932 10.4262H7.91149C8.58862 10.4228 8.58862 9.39363 7.91149 9.39087Z" fill="#FF7F00"/>
<path id="Vector_5" d="M3.20446 11.8275H2.78617C2.10904 11.8303 2.10904 12.8601 2.78617 12.8629H3.20446C3.88159 12.8594 3.88159 11.8303 3.20446 11.8275Z" fill="#FF7F00"/>
<path id="Vector_6" d="M5.55635 11.8275C5.14703 11.8047 4.64453 11.8088 4.62451 12.3452C4.64453 12.8815 5.14703 12.8856 5.55635 12.8629C6.23348 12.8594 6.23348 11.8302 5.55635 11.8275Z" fill="#FF7F00"/>
<path id="Vector_7" d="M7.91149 11.8275H7.4932C6.81607 11.8303 6.81607 12.8601 7.4932 12.8629H7.91149C8.58862 12.8594 8.58862 11.8303 7.91149 11.8275Z" fill="#FF7F00"/>
<path id="Vector_8" d="M12.8675 6.8259C13.5447 6.82314 13.5447 5.79329 12.8675 5.79053H12.4493C11.7721 5.79329 11.7721 6.82314 12.4493 6.8259H12.8675Z" fill="#FF7F00"/>
<path id="Vector_9" d="M15.737 6.30757C15.717 5.77125 15.2145 5.76711 14.8052 5.78989C14.1281 5.79265 14.1281 6.8225 14.8052 6.82526C15.2145 6.84804 15.717 6.8439 15.737 6.30757Z" fill="#FF7F00"/>
<path id="Vector_10" d="M17.5756 6.8259C18.2527 6.82314 18.2527 5.79329 17.5756 5.79053H17.1573C16.4801 5.79329 16.4801 6.82314 17.1573 6.8259H17.5756Z" fill="#FF7F00"/>
<path id="Vector_11" d="M12.4493 10.0294H12.8675C13.5447 10.0266 13.5447 8.99678 12.8675 8.99402H12.4493C11.7721 8.99678 11.7721 10.0259 12.4493 10.0294Z" fill="#FF7F00"/>
<path id="Vector_12" d="M14.8052 10.0295C15.2145 10.0523 15.717 10.0481 15.737 9.5118C15.717 8.97547 15.2145 8.97133 14.8052 8.99411C14.1281 8.99687 14.1281 10.026 14.8052 10.0295Z" fill="#FF7F00"/>
<path id="Vector_13" d="M17.1573 10.0294H17.5756C18.2527 10.0266 18.2527 8.99678 17.5756 8.99402H17.1573C16.4801 8.99678 16.4801 10.0259 17.1573 10.0294Z" fill="#FF7F00"/>
<path id="Vector_14" d="M12.4493 13.2356H12.8675C13.5447 13.2328 13.5447 12.203 12.8675 12.2002H12.4493C11.7721 12.203 11.7721 13.2321 12.4493 13.2356Z" fill="#FF7F00"/>
<path id="Vector_15" d="M14.8052 13.2357C15.2145 13.2584 15.717 13.2543 15.737 12.718C15.717 12.1817 15.2152 12.1775 14.8052 12.2003C14.1281 12.203 14.1281 13.2322 14.8052 13.2357Z" fill="#FF7F00"/>
<path id="Vector_16" d="M17.1573 13.2356H17.5756C18.2527 13.2328 18.2527 12.203 17.5756 12.2002H17.1573C16.4801 12.203 16.4801 13.2321 17.1573 13.2356Z" fill="#FF7F00"/>
<path id="Vector_17" d="M12.4493 16.4431H12.8675C13.5447 16.4403 13.5447 15.4105 12.8675 15.4077H12.4493C11.7721 15.4105 11.7721 16.4396 12.4493 16.4431Z" fill="#FF7F00"/>
<path id="Vector_18" d="M14.8052 16.4432C15.2145 16.466 15.717 16.4618 15.737 15.9255C15.717 15.3892 15.2145 15.385 14.8052 15.4078C14.1281 15.4106 14.1281 16.4397 14.8052 16.4432Z" fill="#FF7F00"/>
<path id="Vector_19" d="M17.1573 16.4431H17.5756C18.2527 16.4403 18.2527 15.4105 17.5756 15.4077H17.1573C16.4801 15.4105 16.4801 16.4396 17.1573 16.4431Z" fill="#FF7F00"/>
</g>
</g>
</svg>
