<svg width="20" height="20" viewBox="0 0 20 20" fill="none" xmlns="http://www.w3.org/2000/svg">
<path d="M8.89926 19.9995C8.53549 19.9959 8.17787 19.9053 7.85629 19.7352C7.50036 19.5667 7.19943 19.3008 6.98831 18.9684C6.77719 18.6359 6.66451 18.2505 6.66331 17.8568V11.4285C6.66183 11.2829 6.61152 11.1421 6.52044 11.0285L0.476948 3.43599C0.225638 3.13683 0.0657392 2.77168 0.0163381 2.38413C-0.033063 1.99658 0.0301208 1.603 0.198347 1.25037C0.377586 0.869804 0.663192 0.549259 1.02067 0.327453C1.37815 0.105647 1.79221 -0.00793269 2.21284 0.000430758H17.7859C18.2072 -0.00664832 18.6217 0.107379 18.9801 0.328958C19.3384 0.550538 19.6257 0.870349 19.8075 1.25037C19.9733 1.60688 20.0338 2.00331 19.9819 2.39303C19.9301 2.78275 19.7679 3.14954 19.5147 3.45027L13.4783 11.0142C13.3872 11.1278 13.3369 11.2686 13.3354 11.4142V16.3425C13.3197 16.6917 13.2207 17.032 13.0468 17.3352C12.8728 17.6384 12.6289 17.8955 12.3353 18.0853L10.1923 19.5995C9.81578 19.869 9.36215 20.0093 8.89926 19.9995ZM2.21284 1.42894C2.06507 1.42363 1.91893 1.46129 1.79214 1.53736C1.66534 1.61342 1.56334 1.72462 1.49848 1.85749C1.43569 1.97086 1.41083 2.10135 1.42754 2.22987C1.44425 2.35839 1.50165 2.47819 1.59135 2.57174L7.64198 10.1643C7.93882 10.5269 8.10043 10.9813 8.09917 11.4499V17.8782C8.10539 18.0059 8.14579 18.1296 8.21616 18.2364C8.28653 18.3432 8.38428 18.4292 8.49922 18.4853C8.63222 18.5566 8.78193 18.5909 8.93272 18.5846C9.08351 18.5784 9.22985 18.5317 9.35645 18.4496L11.4995 16.9282C11.6012 16.8656 11.6887 16.7824 11.7564 16.684C11.824 16.5856 11.8704 16.4742 11.8924 16.3568V11.4285C11.8947 10.9605 12.0559 10.5072 12.3496 10.1428L18.4074 2.54317C18.4973 2.44987 18.5553 2.33055 18.5733 2.20227C18.5912 2.07399 18.5682 1.94331 18.5074 1.82892C18.4426 1.69605 18.3405 1.58485 18.2138 1.50879C18.087 1.43272 17.9408 1.39506 17.793 1.40037L2.21284 1.42894Z" fill="#4F4F4F"/>
</svg>
